<?xml version="1.0" encoding="utf-8"?>
<!-- Generator: Adobe Illustrator 28.1.0, SVG Export Plug-In . SVG Version: 6.00 Build 0)  -->
<svg version="1.1" id="Capa_1" xmlns="http://www.w3.org/2000/svg" xmlns:xlink="http://www.w3.org/1999/xlink" x="0px" y="0px"
	 viewBox="0 0 595.3 841.9" style="enable-background:new 0 0 595.3 841.9;" xml:space="preserve">
<style type="text/css">
	.st0{fill:#5CCAFB;}
	.st1{fill:#0078C5;}
	.st2{opacity:0.3;fill:#FFFFFF;}
	.st3{fill:#78DAFC;}
	.st4{fill:#019CD6;}
	.st5{fill:#9CE5FD;}
	.st6{fill:#04BAE2;}
	.st7{fill:#013F13;}
	.st8{fill:#256C18;}
	.st9{fill:#005315;}
	.st10{fill:#317417;}
	.st11{fill:#3F7A18;}
	.st12{fill:#006315;}
	.st13{opacity:0.3;fill:#006315;}
</style>
<g id="IBcIhA.tif">
</g>
<g id="IBcIhA.tif_00000137129411459400377740000000252186332540518831_">
</g>
<g>
	<path d="M173.7,423c-2.4-2.4-3.6-5.9-3.6-10.5v-17c0-4.6,1.2-8.1,3.6-10.5c2.4-2.4,5.8-3.7,10.3-3.7c4.2,0,7.5,1.2,9.7,3.6
		c2.3,2.4,3.5,5.9,3.7,10.5h-8.9c-0.1-2-0.5-3.4-1.2-4.3c-0.7-0.9-1.8-1.3-3.4-1.3c-1.5,0-2.7,0.4-3.5,1.3c-0.8,0.9-1.2,2.3-1.2,4.2
		v17c0,2,0.4,3.4,1.2,4.3c0.8,0.9,2,1.3,3.5,1.3c1.6,0,2.8-0.4,3.6-1.3c0.8-0.9,1.2-2.3,1.2-4.3v-3.1h-5.3v-7.9h14v11
		c-0.1,4.6-1.4,8.1-3.7,10.5c-2.4,2.4-5.7,3.6-10,3.6C179.6,426.6,176.2,425.4,173.7,423z"/>
	<path d="M221.3,392.6v8.1c-1.3-0.6-2.6-0.9-4-0.9c-1.8,0-3.3,0.5-4.3,1.6c-1,1.1-1.5,2.7-1.5,4.8v19.6H203v-33.2h5.6l0.7,3.8
		c0.9-1.5,2-2.7,3.4-3.4c1.4-0.8,3-1.2,4.9-1.2C219.2,391.9,220.4,392.1,221.3,392.6z"/>
	<path d="M248.5,415.3c-0.3,3.6-1.6,6.4-3.8,8.4c-2.2,2-5.1,3-8.7,3c-3.7,0-6.6-1.2-8.7-3.5c-2.1-2.3-3.2-5.5-3.2-9.6v-8.8
		c0-4.1,1.1-7.2,3.2-9.5c2.1-2.3,5.1-3.4,8.9-3.4c3.8,0,6.8,1.1,9,3.4c2.2,2.3,3.2,5.4,3.2,9.5v7.5h-15.7v1.4c0,3.3,1.1,4.9,3.4,4.9
		c1.2,0,2-0.2,2.5-0.7c0.5-0.5,0.9-1.3,1.2-2.5H248.5z M233.6,400.9c-0.6,0.8-0.9,2-0.9,3.7v1.8h7.2v-1.8c0-1.7-0.3-2.9-0.9-3.7
		c-0.6-0.8-1.5-1.2-2.8-1.2C235,399.8,234.2,400.2,233.6,400.9z"/>
	<path d="M277.2,415.3c-0.3,3.6-1.6,6.4-3.8,8.4c-2.2,2-5.1,3-8.7,3c-3.7,0-6.6-1.2-8.7-3.5c-2.1-2.3-3.2-5.5-3.2-9.6v-8.8
		c0-4.1,1.1-7.2,3.2-9.5c2.1-2.3,5.1-3.4,8.9-3.4c3.8,0,6.8,1.1,9,3.4c2.2,2.3,3.2,5.4,3.2,9.5v7.5h-15.7v1.4c0,3.3,1.1,4.9,3.4,4.9
		c1.2,0,2-0.2,2.5-0.7c0.5-0.5,0.9-1.3,1.2-2.5H277.2z M262.3,400.9c-0.6,0.8-0.9,2-0.9,3.7v1.8h7.2v-1.8c0-1.7-0.3-2.9-0.9-3.7
		c-0.6-0.8-1.5-1.2-2.8-1.2C263.7,399.8,262.8,400.2,262.3,400.9z"/>
	<path d="M303.6,395.4c1.7,2.3,2.6,5.7,2.6,10.2v20.4h-8.6v-20.4c0-2-0.3-3.4-0.8-4.2c-0.5-0.9-1.3-1.3-2.4-1.3
		c-1.1,0-2,0.4-2.6,1.3c-0.6,0.8-0.9,2-0.9,3.6v21h-8.5v-33.2h5.6l0.6,3.4c1.7-2.8,4.3-4.2,7.8-4.2
		C299.4,391.9,301.8,393,303.6,395.4z"/>
	<path d="M336.2,390.5h-8.6v35.4h-9.1v-35.4h-8.6V382h26.3V390.5z"/>
	<path d="M375.2,392.7l-7.6,33.2h-9.2l-1.6-7.4c-1.2-5.4-1.9-10.4-2.3-15h-0.4c-0.3,4.6-1.1,9.6-2.3,15l-1.6,7.4h-9.2l-7.6-33.2h8.8
		l1.8,11.6c0.1,0.4,0.1,0.8,0.2,1.2c0,0.4,0.1,0.8,0.1,1.1c0.8,5.1,1.2,8.4,1.3,10.1h0.4c0.3-2,0.8-5.9,1.8-11.6l2-11.8h9l2,11.8
		c0.9,5.7,1.5,9.6,1.8,11.6h0.4c0.1-1.7,0.5-5,1.3-10.1c0-0.4,0.1-0.8,0.1-1.1s0.1-0.8,0.2-1.2l1.8-11.6H375.2z"/>
	<path d="M379.3,386.5c-0.9-0.9-1.3-2-1.3-3.4c0-1.3,0.4-2.5,1.3-3.4c0.9-0.9,2-1.3,3.4-1.3c1.3,0,2.5,0.4,3.4,1.3
		c0.9,0.9,1.3,2,1.3,3.4c0,1.3-0.5,2.3-1.4,3.3c-0.9,0.9-2,1.4-3.3,1.4C381.3,387.8,380.2,387.4,379.3,386.5z M378.4,392.7h8.6v33.2
		h-8.6V392.7z"/>
	<path d="M414.5,395.4c1.7,2.3,2.6,5.7,2.6,10.2v20.4h-8.6v-20.4c0-2-0.3-3.4-0.8-4.2c-0.5-0.9-1.3-1.3-2.4-1.3
		c-1.1,0-2,0.4-2.6,1.3c-0.6,0.8-0.9,2-0.9,3.6v21h-8.5v-33.2h5.6l0.6,3.4c1.7-2.8,4.3-4.2,7.8-4.2
		C410.4,391.9,412.8,393,414.5,395.4z"/>
	<path d="M439.7,423.2c-2.1-2.2-3.2-5.3-3.2-9.2v-19.7c0-4.1,1-7.3,3.1-9.5c2-2.2,4.7-3.3,8.1-3.3c3.3,0,6,1,8.1,3
		c2.1,2,3.1,5,3.2,8.8h-2c-0.1-3.3-1-5.8-2.7-7.5c-1.7-1.6-3.9-2.5-6.6-2.5c-2.8,0-5,0.9-6.6,2.8c-1.7,1.8-2.5,4.6-2.5,8.3V414
		c0,3.4,0.9,6.1,2.6,7.9c1.7,1.8,4,2.8,6.7,2.8c2.8,0,5.1-0.9,6.9-2.7c1.8-1.8,2.7-4.4,2.7-7.7V405h-9.7v-1.9h11.7v11
		c0,2.6-0.5,4.8-1.5,6.7c-1,1.9-2.4,3.3-4.1,4.2c-1.7,1-3.7,1.4-5.9,1.4C444.5,426.5,441.8,425.4,439.7,423.2z"/>
	<path d="M500.5,395.6c1.4,2,2.1,5.1,2.1,9.1v21.2h-1.9v-21.1c0-3.5-0.5-6.1-1.6-7.8c-1.1-1.7-2.7-2.6-4.8-2.6c-2.4,0-4.4,1.1-6,3.2
		c-1.6,2.1-2.3,4.9-2.3,8.3v20H484v-21.1c0-3.5-0.5-6.1-1.6-7.8c-1.1-1.7-2.7-2.6-4.8-2.6c-2.4,0-4.4,1.1-6,3.2
		c-1.6,2.1-2.3,4.9-2.3,8.3v20h-1.9v-32.6h1.8l0.2,4.6v0.9c0.9-1.9,2.1-3.4,3.5-4.5c1.5-1.1,3.2-1.6,5.1-1.6s3.5,0.6,4.8,1.8
		c1.3,1.2,2.2,3,2.7,5.4c0.8-2.2,1.9-4,3.5-5.3c1.6-1.3,3.5-1.9,5.5-1.9C497.1,392.6,499.1,393.6,500.5,395.6z"/>
	<path d="M528.3,395.5c1.7,2,2.5,4.6,2.5,7.8v12.5c0,2.1-0.4,4-1.3,5.6c-0.8,1.6-2,2.9-3.4,3.8c-1.5,0.9-3.1,1.3-4.9,1.3
		c-1.7,0-3.3-0.4-4.8-1.2s-2.6-1.9-3.4-3.2l-0.2,3.8h-1.8v-45.3h1.9v17.6c0.7-1.8,1.8-3.2,3.3-4.2c1.5-1,3.3-1.5,5.2-1.5
		C524.4,392.6,526.6,393.5,528.3,395.5z M528.9,403.3c0-2.8-0.7-4.9-2.1-6.5c-1.4-1.6-3.3-2.4-5.6-2.4c-2.3,0-4.3,0.9-5.8,2.7
		c-1.5,1.8-2.3,4.3-2.3,7.5v11.7c0,2.5,0.8,4.6,2.3,6.1c1.5,1.6,3.4,2.4,5.6,2.4c2.3,0,4.2-0.8,5.7-2.4s2.2-3.8,2.2-6.5V403.3z"/>
	<path d="M561.7,382v43.9h-2v-21.4h-17.9v21.4h-2V382h2v20.5h17.9V382H561.7z"/>
</g>
<g>
	<g>
		<path d="M180.9,444.4v15.7c0,1.4-0.4,2.5-1.2,3.3c-0.8,0.8-1.9,1.2-3.2,1.2c-1.4,0-2.4-0.4-3.3-1.1c-0.8-0.8-1.3-1.8-1.3-3h1.2
			c0.1,1,0.4,1.7,1,2.2s1.4,0.8,2.4,0.8c1,0,1.8-0.3,2.3-0.9c0.6-0.6,0.8-1.4,0.8-2.4v-3c-0.4,0.5-0.9,1-1.5,1.3
			c-0.6,0.3-1.2,0.5-1.9,0.5c-1.4,0-2.5-0.5-3.3-1.4c-0.9-0.9-1.3-2.1-1.3-3.7v-4.5c0-1.6,0.4-2.9,1.3-3.8c0.8-0.9,1.9-1.4,3.3-1.4
			c0.8,0,1.4,0.2,2,0.5c0.6,0.3,1.1,0.8,1.5,1.5l0.1-1.7H180.9z M178.8,456.7c0.6-0.7,0.9-1.6,0.9-2.7v-5c0-1.1-0.3-2.1-0.9-2.7
			c-0.6-0.7-1.4-1-2.3-1c-1.1,0-2,0.3-2.6,1c-0.6,0.7-1,1.7-1,3v4.5c0,1.2,0.3,2.2,1,2.8c0.6,0.7,1.5,1,2.6,1
			C177.5,457.7,178.2,457.3,178.8,456.7z"/>
		<path d="M199.4,454.7c-0.1,1.5-0.6,2.6-1.4,3.5c-0.8,0.8-1.9,1.2-3.4,1.2c-1.4,0-2.5-0.4-3.3-1.3c-0.8-0.9-1.2-2.1-1.2-3.6v-5.4
			c0-1.6,0.4-2.8,1.2-3.7c0.8-0.9,2-1.3,3.4-1.3s2.6,0.4,3.4,1.3c0.8,0.9,1.3,2.1,1.3,3.6v3.3h-8.1v2.1c0,1.2,0.3,2.2,0.9,2.8
			s1.4,1,2.5,1c1.1,0,1.9-0.3,2.5-0.9c0.6-0.6,0.9-1.5,1.1-2.6H199.4z M192.2,446.3c-0.6,0.7-0.9,1.6-0.9,2.8v2.2h6.8v-2.2
			c0-1.2-0.3-2.2-0.9-2.8c-0.6-0.7-1.5-1-2.5-1S192.8,445.6,192.2,446.3z"/>
		<path d="M214,458.1v1.2h-0.7c-1.3,0-2.3-0.4-3-1.1s-1-1.7-1-3.1v-9.6h-2.2v-1.1h2.2V441h1.2v3.4h3.2v1.1h-3.2v9.6c0,2,0.9,3,2.8,3
			H214z"/>
		<path d="M241.4,444.3v1.3c-0.5-0.2-1.1-0.3-1.8-0.3c-1.1,0-2,0.4-2.7,1.3c-0.7,0.9-1,2.1-1,3.5v9h-1.2v-14.7h1l0.2,1.9v0.3
			c0.4-0.8,1-1.4,1.6-1.8c0.7-0.4,1.4-0.7,2.3-0.7C240.5,444.1,241,444.2,241.4,444.3z"/>
		<path d="M258.3,454.7c-0.1,1.5-0.6,2.6-1.4,3.5c-0.8,0.8-1.9,1.2-3.4,1.2c-1.4,0-2.5-0.4-3.3-1.3c-0.8-0.9-1.2-2.1-1.2-3.6v-5.4
			c0-1.6,0.4-2.8,1.2-3.7c0.8-0.9,2-1.3,3.4-1.3s2.6,0.4,3.4,1.3c0.8,0.9,1.3,2.1,1.3,3.6v3.3h-8.1v2.1c0,1.2,0.3,2.2,0.9,2.8
			s1.4,1,2.5,1c1.1,0,1.9-0.3,2.5-0.9c0.6-0.6,0.9-1.5,1.1-2.6H258.3z M251.1,446.3c-0.6,0.7-0.9,1.6-0.9,2.8v2.2h6.8v-2.2
			c0-1.2-0.3-2.2-0.9-2.8c-0.6-0.7-1.5-1-2.5-1S251.7,445.6,251.1,446.3z"/>
		<path d="M267.8,458.3c-0.8-0.8-1.3-1.9-1.3-3.3h1.2c0,1.1,0.3,1.9,0.9,2.5c0.6,0.6,1.4,0.8,2.5,0.8c0.9,0,1.7-0.2,2.3-0.7
			c0.6-0.5,0.9-1.1,0.9-2c0-0.6-0.2-1.1-0.5-1.5c-0.3-0.4-0.7-0.7-1.2-1c-0.5-0.3-1.1-0.5-1.9-0.9c-0.9-0.4-1.6-0.7-2.2-1
			c-0.5-0.3-1-0.7-1.4-1.3c-0.4-0.5-0.6-1.2-0.6-2c0-1.1,0.4-2,1.2-2.7s1.8-1,3-1c1.3,0,2.4,0.4,3.1,1.1c0.8,0.8,1.2,1.8,1.2,3H274
			c0-1-0.3-1.7-0.9-2.2c-0.6-0.5-1.3-0.8-2.3-0.8c-0.9,0-1.6,0.2-2.2,0.7c-0.5,0.5-0.8,1.1-0.8,1.9c0,0.5,0.1,1,0.5,1.4
			c0.3,0.4,0.7,0.7,1.1,0.9c0.5,0.2,1.1,0.5,1.8,0.8c0.9,0.4,1.6,0.7,2.2,1.1c0.6,0.3,1,0.8,1.4,1.3s0.6,1.3,0.6,2.1
			c0,1.1-0.4,2.1-1.2,2.8c-0.8,0.7-1.9,1.1-3.1,1.1C269.8,459.5,268.6,459.1,267.8,458.3z"/>
		<path d="M284,441.3c-0.2-0.2-0.3-0.5-0.3-0.8c0-0.3,0.1-0.6,0.3-0.8c0.2-0.2,0.5-0.3,0.8-0.3c0.3,0,0.6,0.1,0.8,0.3
			c0.2,0.2,0.3,0.5,0.3,0.8c0,0.3-0.1,0.6-0.3,0.8s-0.5,0.3-0.8,0.3C284.5,441.6,284.2,441.5,284,441.3z M284.2,444.4h1.2v14.7h-1.2
			V444.4z"/>
		<path d="M295,438.8h1.2v20.4H295V438.8z"/>
		<path d="M305.7,441.3c-0.2-0.2-0.3-0.5-0.3-0.8c0-0.3,0.1-0.6,0.3-0.8c0.2-0.2,0.5-0.3,0.8-0.3c0.3,0,0.6,0.1,0.8,0.3
			c0.2,0.2,0.3,0.5,0.3,0.8c0,0.3-0.1,0.6-0.3,0.8s-0.5,0.3-0.8,0.3C306.2,441.6,305.9,441.5,305.7,441.3z M305.9,444.4h1.2v14.7
			h-1.2V444.4z"/>
		<path d="M325.6,454.7c-0.1,1.5-0.6,2.6-1.4,3.5c-0.8,0.8-1.9,1.2-3.4,1.2c-1.4,0-2.5-0.4-3.3-1.3c-0.8-0.9-1.2-2.1-1.2-3.6v-5.4
			c0-1.6,0.4-2.8,1.2-3.7c0.8-0.9,2-1.3,3.4-1.3s2.6,0.4,3.4,1.3s1.3,2.1,1.3,3.6v3.3h-8.1v2.1c0,1.2,0.3,2.2,0.9,2.8s1.4,1,2.5,1
			c1.1,0,1.9-0.3,2.5-0.9s0.9-1.5,1.1-2.6H325.6z M318.4,446.3c-0.6,0.7-0.9,1.6-0.9,2.8v2.2h6.8v-2.2c0-1.2-0.3-2.2-0.9-2.8
			c-0.6-0.7-1.5-1-2.5-1C319.8,445.3,319,445.6,318.4,446.3z"/>
		<path d="M342.7,445.5c0.7,0.9,1,2.3,1,4.2v9.5h-1.2v-9.4c0-1.5-0.2-2.7-0.7-3.4c-0.5-0.7-1.2-1.1-2.2-1.1c-1.1,0-2,0.4-2.7,1.3
			c-0.7,0.9-1,2.1-1,3.6v9h-1.2v-14.7h1l0.2,1.9v0.3c0.4-0.8,1-1.4,1.6-1.8c0.7-0.4,1.5-0.6,2.4-0.6
			C341.1,444.1,342,444.6,342.7,445.5z"/>
		<path d="M358.6,458.1v1.2h-0.7c-1.3,0-2.3-0.4-3-1.1s-1-1.7-1-3.1v-9.6h-2.2v-1.1h2.2V441h1.2v3.4h3.2v1.1h-3.2v9.6
			c0,2,0.9,3,2.8,3H358.6z"/>
		<path d="M386.7,445.3c0.8,0.8,1.1,2,1.1,3.4v10.4h-1.1l-0.1-1.6c-0.4,0.6-0.8,1.1-1.5,1.4c-0.6,0.3-1.3,0.5-2.2,0.5
			c-1.3,0-2.4-0.4-3.2-1.2c-0.8-0.8-1.2-1.9-1.2-3.3c0-1.4,0.4-2.5,1.3-3.2c0.9-0.8,2.1-1.1,3.7-1.1h3v-1.9c0-1.1-0.3-2-0.8-2.6
			c-0.5-0.6-1.3-0.9-2.3-0.9c-0.9,0-1.7,0.3-2.3,0.8c-0.6,0.5-0.9,1.2-0.9,2.1H379c0.1-1.2,0.5-2.2,1.3-2.9c0.8-0.7,1.9-1.1,3.2-1.1
			C384.9,444.1,385.9,444.5,386.7,445.3z M385.7,457.3c0.6-0.6,0.9-1.5,0.9-2.6v-2.9h-3.1c-1.2,0-2.1,0.3-2.7,0.8
			c-0.6,0.6-0.9,1.4-0.9,2.4c0,1,0.3,1.8,0.9,2.4c0.6,0.6,1.4,0.9,2.4,0.9C384.2,458.3,385.1,458,385.7,457.3z"/>
		<path d="M405.4,445.5c0.7,0.9,1,2.3,1,4.2v9.5h-1.2v-9.4c0-1.5-0.2-2.7-0.7-3.4c-0.5-0.7-1.2-1.1-2.2-1.1c-1.1,0-2,0.4-2.7,1.3
			c-0.7,0.9-1,2.1-1,3.6v9h-1.2v-14.7h1l0.2,1.9v0.3c0.4-0.8,1-1.4,1.6-1.8c0.7-0.4,1.5-0.6,2.4-0.6
			C403.8,444.1,404.7,444.6,405.4,445.5z"/>
		<path d="M424.6,438.8v20.4h-1l-0.1-1.5c-0.4,0.6-0.9,1-1.5,1.4c-0.6,0.3-1.3,0.5-2.1,0.5c-1.3,0-2.4-0.5-3.2-1.4
			c-0.8-0.9-1.2-2.2-1.2-3.8v-5c0-1.6,0.4-2.9,1.2-3.8c0.8-0.9,1.8-1.4,3.2-1.4c0.8,0,1.5,0.2,2.2,0.6c0.6,0.4,1.1,0.9,1.5,1.6v-7.5
			H424.6z M422.5,457.3c0.6-0.7,0.9-1.7,0.9-2.9v-4.8c0-1.3-0.3-2.4-1-3.2c-0.6-0.8-1.4-1.2-2.4-1.2c-1.1,0-1.9,0.3-2.5,1
			c-0.6,0.7-0.9,1.7-0.9,3v5c0,1.3,0.3,2.3,0.9,3c0.6,0.7,1.5,1.1,2.5,1.1C421.1,458.3,421.9,458,422.5,457.3z"/>
		<path d="M447.5,458.1c-0.8-0.9-1.2-2.1-1.2-3.6v-5.4c0-1.6,0.4-2.8,1.2-3.7c0.8-0.9,1.9-1.3,3.3-1.3c1.4,0,2.6,0.4,3.4,1.3
			c0.8,0.9,1.2,2.1,1.3,3.7h-1.2c0-1.3-0.3-2.2-0.9-2.9c-0.6-0.7-1.4-1-2.5-1c-1,0-1.8,0.3-2.4,1c-0.6,0.7-0.9,1.6-0.9,2.8v5.4
			c0,1.2,0.3,2.2,0.9,2.8s1.4,1,2.4,1c1.1,0,1.9-0.3,2.5-1c0.6-0.7,0.9-1.6,0.9-2.9h1.2c0,1.6-0.4,2.8-1.3,3.7
			c-0.8,0.9-2,1.4-3.4,1.4C449.4,459.4,448.3,459,447.5,458.1z"/>
		<path d="M464,441.3c-0.2-0.2-0.3-0.5-0.3-0.8c0-0.3,0.1-0.6,0.3-0.8c0.2-0.2,0.5-0.3,0.8-0.3c0.3,0,0.6,0.1,0.8,0.3
			c0.2,0.2,0.3,0.5,0.3,0.8c0,0.3-0.1,0.6-0.3,0.8s-0.5,0.3-0.8,0.3C464.4,441.6,464.2,441.5,464,441.3z M464.2,444.4h1.2v14.7h-1.2
			V444.4z"/>
		<path d="M481.6,444.3v1.3c-0.5-0.2-1.1-0.3-1.8-0.3c-1.1,0-2,0.4-2.7,1.3c-0.7,0.9-1,2.1-1,3.5v9h-1.2v-14.7h1l0.2,1.9v0.3
			c0.4-0.8,1-1.4,1.6-1.8c0.7-0.4,1.4-0.7,2.3-0.7C480.7,444.1,481.2,444.2,481.6,444.3z"/>
		<path d="M490.4,458.1c-0.8-0.9-1.2-2.1-1.2-3.6v-5.4c0-1.6,0.4-2.8,1.2-3.7c0.8-0.9,1.9-1.3,3.3-1.3c1.4,0,2.6,0.4,3.4,1.3
			c0.8,0.9,1.2,2.1,1.3,3.7h-1.2c0-1.3-0.3-2.2-0.9-2.9c-0.6-0.7-1.4-1-2.5-1c-1,0-1.8,0.3-2.4,1c-0.6,0.7-0.9,1.6-0.9,2.8v5.4
			c0,1.2,0.3,2.2,0.9,2.8s1.4,1,2.4,1c1.1,0,1.9-0.3,2.5-1c0.6-0.7,0.9-1.6,0.9-2.9h1.2c0,1.6-0.4,2.8-1.3,3.7
			c-0.8,0.9-2,1.4-3.4,1.4C492.3,459.4,491.2,459,490.4,458.1z"/>
		<path d="M516,444.4v14.7h-1l-0.2-1.9V457c-0.4,0.8-1,1.4-1.6,1.8s-1.5,0.6-2.4,0.6c-1.2,0-2.1-0.5-2.8-1.4s-1-2.3-1-4.2v-9.5h1.2
			v9.4c0,1.5,0.2,2.7,0.7,3.4c0.5,0.7,1.2,1.1,2.2,1.1c1.1,0,2-0.4,2.7-1.3s1-2.1,1-3.6v-9H516z"/>
		<path d="M525.7,438.8h1.2v20.4h-1.2V438.8z"/>
		<path d="M543.9,445.3c0.8,0.8,1.1,2,1.1,3.4v10.4h-1.1l-0.1-1.6c-0.4,0.6-0.8,1.1-1.5,1.4c-0.6,0.3-1.3,0.5-2.2,0.5
			c-1.3,0-2.4-0.4-3.2-1.2c-0.8-0.8-1.2-1.9-1.2-3.3c0-1.4,0.4-2.5,1.3-3.2c0.9-0.8,2.1-1.1,3.7-1.1h3v-1.9c0-1.1-0.3-2-0.8-2.6
			c-0.5-0.6-1.3-0.9-2.3-0.9c-0.9,0-1.7,0.3-2.3,0.8c-0.6,0.5-0.9,1.2-0.9,2.1h-1.2c0.1-1.2,0.5-2.2,1.3-2.9
			c0.8-0.7,1.9-1.1,3.2-1.1C542,444.1,543.1,444.5,543.9,445.3z M542.9,457.3c0.6-0.6,0.9-1.5,0.9-2.6v-2.9h-3.1
			c-1.2,0-2.1,0.3-2.7,0.8c-0.6,0.6-0.9,1.4-0.9,2.4c0,1,0.3,1.8,0.9,2.4c0.6,0.6,1.4,0.9,2.4,0.9
			C541.4,458.3,542.3,458,542.9,457.3z"/>
		<path d="M561.3,444.3v1.3c-0.5-0.2-1.1-0.3-1.8-0.3c-1.1,0-2,0.4-2.7,1.3c-0.7,0.9-1,2.1-1,3.5v9h-1.2v-14.7h1l0.2,1.9v0.3
			c0.4-0.8,1-1.4,1.6-1.8c0.7-0.4,1.4-0.7,2.3-0.7C560.4,444.1,560.9,444.2,561.3,444.3z"/>
	</g>
</g>
<path class="st0" d="M113.1,356.5c1.2-1.1,3.5,0,4.8-0.8c-3.8-1.7-7.8-2.9-12-3.8c3.2,2,6.1,4.1,8.9,6.5
	C114.7,358,113.3,357.1,113.1,356.5z"/>
<path class="st1" d="M152.3,395.7c-0.4-1.6-0.9-3.2-1.5-4.8c-0.2,0.2-0.3,0.4-0.4,0.6C151.1,392.9,151.8,394.3,152.3,395.7z"/>
<path class="st1" d="M113.1,356.5c0.3,0.6,1.6,1.5,1.7,2c3.6,3.1,6.9,6.6,9.8,10.3c11.3,3.9,20.6,12.1,25.9,22.7
	c0.1-0.2,0.2-0.4,0.4-0.6c-5.7-15.8-17.7-28.6-33-35.3C116.6,356.5,114.3,355.4,113.1,356.5z"/>
<path class="st0" d="M71.8,360c0,1,0.3,0.8,0.5,0C72.2,360,72,360,71.8,360z"/>
<path class="st2" d="M71.8,360c0,1,0.3,0.8,0.5,0C72.2,360,72,360,71.8,360z"/>
<path class="st3" d="M47.9,378.8c0.4-0.1,0.8-0.1,1.3-0.2c-0.1-0.2-0.1-0.4-0.1-0.8c-0.1,0.5-0.7,0.1-1.2,0.1c0-0.3,0.4-0.9,0.6-1.3
	c-1.4-0.2,0.4-0.9,0.4-0.9c0.3-0.3,0.7-1.6,1.6-0.8c-0.4,0.2-0.5,0.6-0.7,1c2.7-0.8,0.9,0.9,0.9,1.4c0.1,0.5,0.2,0.5,0.6,0.9
	c1.8-0.2,3.6-0.4,5.5-0.4c0.8,0,1.6,0.1,2.4,0.1c-0.1-0.5-0.2-1,0.3-1.5c1-1,1.3-0.8,1.1,0.5c0.1,0.1,0.3,0.1,0.5,0
	c-0.1,0.2-0.2,0.6-0.2,0.8c0.2,0.1,1.1-0.3,1.4-0.4c0,0.3,0,0.6,0,0.8c1.4,0.2,2.7,0.4,4.1,0.6c0.2,0,0.5,0,0.7,0.2
	c0.1,0,0.2,0.1,0.3,0.1c-0.3-0.7,0.5-0.4,1.3-0.4c0-0.5,0-2.6,0.9-2.9c0.8-0.3,0.7,1.7,2,0c-0.5-0.3-0.5-0.6-1.1-0.9
	c-0.3-0.1-1.1,1.2-1.5,0c0.4-0.1,0.6-0.2,1-0.2c-0.2-0.1-0.3-0.2-0.5-0.2c0,0,1.7-0.6,2.2-0.7c1.2-0.2,2.7,0.3,3.8-0.8
	c-1.9-1.1-4.7,1.2-6.2-0.7c-2.3-2.6,2.7-3.5,2.4-5c-0.1-0.7-1.5-1.3-2.1-1c-0.8,0.5-0.8,1.7-1.1,2.2c-0.5,0.7-1.5,0.7-2,1.3
	c-1.1,1.2-0.2,2.2-0.2,3.3c1.4,0,0.5,0.6,0.2,1.2c-0.1,0.2-1.1,1.5-1.3,1.9c0.2,0.2,0.4,0.2,0.8,0.2c0.1,0.1,0.1,0.3,0,0.4
	c-0.7,0.2-1.2,0.5-2,0.8c-0.5,0.2,0,1-1.1,0.6c-0.5-0.2,0.1-0.6-0.1-0.8c-0.7-0.8-1.2-3.5-2-3.6c-1.2,1.5-1.8,1.3-3.5,1.3
	c-0.1-0.4,0.2-0.5,0.2-0.9c-1.6-0.1,0.8-1.2-1-1.2c0.4-1.5,0.7-2.8,2.8-3.2c-0.1-0.4-0.1-0.3-0.1-0.6c0.6,0.1,2.3-0.7,2.4-1.4
	c-0.2,0-0.4,0-0.6,0c0.3-0.3,0.9-0.7,1.3-0.7c0.2-1.4,1.9-3.4,3.1-3.7c-0.9-0.4-2.1,0.3-2.9,0.6c0.4-0.5,0.8-0.9,1.6-0.9
	c0-0.3,0-0.1-0.1-0.4c0.5-0.2,0.7-0.6,1-0.7c0.2,0.8,0.1,0.6,0.9,0.9c0.3-1-0.6-0.3,0.4-1.3c0.1,1.1,0.9-0.1,0.7-0.9
	c0.6-0.1,1.4,0.5,1.4,1c0.3-0.3,0.2-0.4,0.2-0.8c0.5,0.2,1.1,0,1.6,0.2c-0.9-0.5-1-1.4,0.6-1.2c-0.8,0.8,1.4-0.3,1.7-0.4
	c0,0.1,0,0.3,0,0.4c0.4,0.3,0.5,0.3,0.7,0.7c-0.1-0.4,0-0.6,0-1c0.2-0.1,0.8-0.1,1.1,0c0,0.2-0.2,0.6-0.2,0.8c0.8,0,0.3-0.8,1.5-0.2
	c0.5,0.2,0.9,0.6,0,0.6c0.5,0.5,2.9,0.1,2.3,1.3c0.5,0.3,2.2,0,3.3,0.4c0.7,0.3,2.6,1,2.8,1.7c0.8,3.2-6.1,0.5-6.7,0.4
	c0.7,1,1.7,1.9,2.2,2.7c0.5,0.9-0.1,0.8,1.1,1.3c0.1,0.1,1.3,0.2,1.3-0.2c0-0.5-2.4-0.6-0.8-1.5c0.7,0.9,1.6,0.5,2.4,0.9
	c0-0.3-0.4-1-0.6-1.2c0.6,0,1.4-0.9,1.6-1c0.4-0.1,1.7,0.2,1.5,0.3c0.5-0.3,0.1-2.8-0.4-3.3c1.1,0,3.4,1.3,1.5,1.3
	c-0.2,2.4,2.4,0,2.7-0.1c1.2-0.8,2.6-0.8,3.8-1.5c-0.8,2.5,3.7-1.3,3.7,0.9c2.8-1.1-1.4-2.8,0.1-3c0.3-0.1,2.4,1,3,1.2
	c1.1,0.4,2,0.8,3.1,1.1c0,0,1.1,1.4,1.3,0.4c0.2-0.6-0.7-0.6-0.9-0.9c-0.3-0.6-0.7-0.5-0.9-0.9c0.2,0.4,0.2-2,0-1.3
	c0-0.1,1.5-2.5,1.6-2.6c0.9-0.7,3.1-0.4,2.8,0.9c-0.2,0-0.3,0-0.5,0c-0.1,1,0.2,4.6,1.1,4.5c0,0.8-0.4,1.4-1,1.9
	c-0.6,0.5-1.9,0.5-2.2,0.9c1.5,0.1,1.5,0.4,2.7-0.3c0.4-0.2,0.8-0.4,1.1-0.9c0.2-0.3,0.1-1.3,0.1-1.3c2.2-1.8,1.9,2.3,3.5,1.2
	c-0.2,0-1.1-0.2-1.1-0.5c0-0.8,0.1-1.5-1.2-2c-1-0.4-0.8,0.8-1.6-0.5c-0.1-0.1-0.3-2.5-0.3-2.5c0.2-0.9,1-0.3,1-1.7
	c0.1,0,0.2,0,0.3-0.1c0.2,0.5,0,1.7,0.2,2c0.6,0.7,1.8,0.2,2.3,1c0.1-0.9-3.3-1.6-0.3-1.4c0-0.5-0.5-0.5-0.8-0.7
	c1-0.2,1.6-0.2,2.6,0.2c0.2,0.1,0.7,0.8,1.1,0.7c0.3,0,0.4-0.1,0.4-0.3c-2.8-2.4-5.8-4.6-8.9-6.5c-0.4-0.1-0.8-0.2-1.3-0.3
	c-0.5,0.6-2.6,1-3.1,1.1c-2.3,0.6-3.8,1.4-5.3,3c-0.7,0.7-1.6,1.3-1.5,2.4c0.1,0.9,1.1,1.2,1.2,2.1c-0.7,0-1.9,0.1-2.5-0.2
	c-0.5-0.2,0.1-0.7-0.8-1.2c0,0.1,0,0.2-0.2,0.3c-0.2-0.5-0.5-0.2-0.9-0.2c0-1,1.4-2.8,2.1-2.7c0.6,0,0.3-0.2,0.4-0.6
	c-0.3,0-0.4,0.1-0.6,0.1c-0.2-0.8,2.3-0.8,1.6-2.1c0.3,0,0.6,0,0.9,0c0-1.7,4.7-1.9,6.2-2.3c0.1,0,0.4-0.1,0.6-0.3
	c-2.9-0.4-5.9-0.7-9-0.7c-22.3,0-41.7,12.1-52.3,30c1.7-0.6,3.4-1.1,5.1-1.5C46.1,378.3,47.1,378.4,47.9,378.8z M106.6,356.3
	c-0.2,0.1-0.5,0.5-1.1,0.5C104.5,356.8,106.9,356.1,106.6,356.3z M90.6,362.1c-0.1,0.5-0.9,0.7-1.3,0.7
	C88.8,361.2,89.9,362,90.6,362.1z M48.1,375c0.6-0.1-0.5,0.8-0.8,0.9C47.3,375.6,47.7,375.1,48.1,375z"/>
<path class="st3" d="M103.2,427.2c-0.1,1.3-0.2,2.5-0.4,3.8c3.3-4.2,5.5-9.3,6.3-14.8C108.2,420.5,106.1,424.2,103.2,427.2z"/>
<path class="st1" d="M90.6,362.1c-0.7-0.1-1.8-0.9-1.3,0.7C89.7,362.8,90.5,362.6,90.6,362.1z"/>
<path class="st1" d="M66.4,378.9c0.2,0.1,0.5,0.1,0.7,0.2C66.8,379,66.6,378.9,66.4,378.9z"/>
<path class="st2" d="M66.4,378.9c0.2,0.1,0.5,0.1,0.7,0.2C66.8,379,66.6,378.9,66.4,378.9z"/>
<path class="st1" d="M62.3,377.5c-0.3,0.1-1.2,0.5-1.4,0.4c0-0.2,0.2-0.6,0.2-0.8c-0.2,0.1-0.3,0.1-0.5,0c0.2-1.3-0.2-1.5-1.1-0.5
	c-0.5,0.5-0.4,1-0.3,1.5c1,0.1,2,0.1,3,0.2C62.4,378.1,62.4,377.9,62.3,377.5z"/>
<path class="st2" d="M62.3,377.5c-0.3,0.1-1.2,0.5-1.4,0.4c0-0.2,0.2-0.6,0.2-0.8c-0.2,0.1-0.3,0.1-0.5,0c0.2-1.3-0.2-1.5-1.1-0.5
	c-0.5,0.5-0.4,1-0.3,1.5c1,0.1,2,0.1,3,0.2C62.4,378.1,62.4,377.9,62.3,377.5z"/>
<path class="st1" d="M95.9,353.9c-0.3,0-0.6,0-0.9,0c0.7,1.3-1.8,1.2-1.6,2.1c0.3-0.1,0.3-0.2,0.6-0.1c-0.1,0.4,0.2,0.6-0.4,0.6
	c-0.7-0.1-2.1,1.8-2.1,2.7c0.4-0.1,0.7-0.3,0.9,0.2c0.1-0.1,0.2-0.2,0.2-0.3c0.9,0.5,0.3,1,0.8,1.2c0.6,0.3,1.8,0.2,2.5,0.2
	c-0.1-1-1.1-1.3-1.2-2.1c-0.1-1.1,0.8-1.7,1.5-2.4c1.6-1.6,3-2.4,5.3-3c0.6-0.1,2.6-0.6,3.1-1.1c-0.7-0.1-1.3-0.2-2-0.3
	c-0.2,0.1-0.4,0.2-0.6,0.3C100.6,352.1,95.9,352.2,95.9,353.9z"/>
<g>
	<g>
		<path class="st4" d="M90.6,362.1c-0.7-0.1-1.8-0.9-1.3,0.7C89.7,362.8,90.5,362.6,90.6,362.1z"/>
		<path class="st4" d="M95.9,353.9c-0.3,0-0.6,0-0.9,0c0.7,1.3-1.8,1.2-1.6,2.1c0.3-0.1,0.3-0.2,0.6-0.1c-0.1,0.4,0.2,0.6-0.4,0.6
			c-0.7-0.1-2.1,1.8-2.1,2.7c0.4-0.1,0.7-0.3,0.9,0.2c0.1-0.1,0.2-0.2,0.2-0.3c0.9,0.5,0.3,1,0.8,1.2c0.6,0.3,1.8,0.2,2.5,0.2
			c-0.1-1-1.1-1.3-1.2-2.1c-0.1-1.1,0.8-1.7,1.5-2.4c1.6-1.6,3-2.4,5.3-3c0.6-0.1,2.6-0.6,3.1-1.1c-0.7-0.1-1.3-0.2-2-0.3
			c-0.2,0.1-0.4,0.2-0.6,0.3C100.6,352.1,95.9,352.2,95.9,353.9z"/>
	</g>
</g>
<path class="st1" d="M106.6,356.3c0.3-0.2-2.1,0.5-1.1,0.5C106.1,356.8,106.4,356.4,106.6,356.3z"/>
<path class="st4" d="M106.6,356.3c0.3-0.2-2.1,0.5-1.1,0.5C106.1,356.8,106.4,356.4,106.6,356.3z"/>
<path class="st1" d="M114.8,358.5c0,0.1-0.1,0.2-0.4,0.3c-0.4,0-0.8-0.7-1.1-0.7c-1-0.3-1.7-0.4-2.6-0.2c0.4,0.2,0.8,0.1,0.8,0.7
	c-2.9-0.2,0.5,0.5,0.3,1.4c-0.5-0.7-1.7-0.3-2.3-1c-0.2-0.2,0-1.5-0.2-2c-0.1,0.1-0.2,0.1-0.3,0.1c0,1.5-0.9,0.9-1,1.7
	c0,0,0.2,2.4,0.3,2.5c0.8,1.4,0.6,0.1,1.6,0.5c1.3,0.5,1.2,1.2,1.2,2c0,0.3,1,0.5,1.1,0.5c-1.6,1.1-1.3-3-3.5-1.2
	c0,0,0.1,1.1-0.1,1.3c-0.3,0.5-0.6,0.7-1.1,0.9c-1.2,0.7-1.2,0.4-2.7,0.3c0.3-0.5,1.6-0.4,2.2-0.9c0.6-0.5,1-1.1,1-1.9
	c-0.9,0.1-1.2-3.5-1.1-4.5c0.2,0,0.4,0,0.5,0c0.3-1.3-1.9-1.6-2.8-0.9c-0.1,0.1-1.6,2.5-1.6,2.6c0.3-0.7,0.3,1.7,0,1.3
	c0.2,0.4,0.6,0.3,0.9,0.9c0.2,0.4,1,0.4,0.9,0.9c-0.3,1-1.3-0.4-1.3-0.4c-1.1-0.3-2-0.7-3.1-1.1c-0.6-0.2-2.7-1.3-3-1.2
	c-1.4,0.2,2.7,1.9-0.1,3c0-2.2-4.6,1.6-3.7-0.9c-1.2,0.7-2.6,0.7-3.8,1.5c-0.2,0.1-2.8,2.5-2.7,0.1c2,0.1-0.3-1.3-1.5-1.3
	c0.5,0.5,0.9,3,0.4,3.3c0.1-0.1-1.2-0.4-1.5-0.3c-0.3,0.1-1.1,1-1.6,1c0.2,0.2,0.6,0.9,0.6,1.2c-0.8-0.4-1.8,0-2.4-0.9
	c-1.6,0.9,0.8,1,0.8,1.5c0,0.4-1.2,0.2-1.3,0.2c-1.2-0.6-0.6-0.4-1.1-1.3c-0.5-0.8-1.4-1.8-2.2-2.7c0.7,0.1,7.5,2.9,6.7-0.4
	c-0.2-0.8-2.1-1.5-2.8-1.7c-1.1-0.4-2.8-0.1-3.3-0.4c0.6-1.2-1.7-0.8-2.3-1.3c0.9,0,0.4-0.4,0-0.6c-1.1-0.6-0.7,0.2-1.5,0.2
	c0.1-0.2,0.2-0.6,0.2-0.8c-0.3-0.1-0.8-0.1-1.1,0c0,0.4-0.1,0.6,0,1c-0.2-0.5-0.4-0.4-0.7-0.7c0-0.1,0-0.3,0-0.4
	c-0.3,0-2.5,1.2-1.7,0.4c-1.6-0.2-1.5,0.7-0.6,1.2c-0.5-0.2-1.1,0-1.6-0.2c0,0.5,0.1,0.6-0.2,0.8c0-0.6-0.8-1.1-1.4-1
	c0.2,0.8-0.5,2-0.7,0.9c-1,1-0.1,0.3-0.4,1.3c-0.8-0.3-0.6-0.1-0.9-0.9c-0.3,0.1-0.5,0.5-1,0.7c0.1,0.3,0.1,0.1,0.1,0.4
	c-0.7,0-1.2,0.3-1.6,0.9c0.8-0.3,2-1,2.9-0.6c-1.2,0.3-2.9,2.2-3.1,3.7c-0.4,0-1,0.4-1.3,0.7c0.2,0,0.4,0,0.6,0
	c-0.1,0.8-1.9,1.5-2.4,1.4c0,0.3-0.1,0.2,0.1,0.6c-2.1,0.4-2.4,1.7-2.8,3.2c1.8-0.1-0.6,1.1,1,1.2c0,0.4-0.3,0.5-0.2,0.9
	c1.7,0,2.4,0.2,3.5-1.3c0.8,0.1,1.3,2.9,2,3.6c0.2,0.2-0.4,0.6,0.1,0.8c1.1,0.4,0.6-0.4,1.1-0.6c0.9-0.3,1.3-0.6,2-0.8
	c0.1-0.1,0.1-0.3,0-0.4c-0.4,0-0.5,0-0.8-0.2c0.2-0.4,1.3-1.7,1.3-1.9c0.3-0.7,1.2-1.2-0.2-1.2c0-1-0.9-2,0.2-3.3
	c0.5-0.6,1.5-0.7,2-1.3c0.3-0.4,0.3-1.7,1.1-2.2c0.6-0.4,2,0.3,2.1,1c0.2,1.5-4.7,2.4-2.4,5c1.6,1.8,4.4-0.4,6.2,0.7
	c-1,1.1-2.5,0.6-3.8,0.8c-0.5,0.1-2.2,0.6-2.2,0.7c0.2,0.1,0.3,0.2,0.5,0.2c-0.4,0-0.6,0.1-1,0.2c0.4,1.1,1.2-0.2,1.5,0
	c0.5,0.3,0.6,0.6,1.1,0.9c-1.3,1.7-1.3-0.3-2,0c-0.9,0.3-0.9,2.4-0.9,2.9c-0.7,0-1.6-0.3-1.3,0.4c2.8,0.6,5.4,1.5,8,2.6
	c8.4-9.5,20.6-15.5,34.2-15.5c5.2,0,10.3,0.9,14.9,2.5C121.6,365,118.4,361.6,114.8,358.5z M71.8,360c0.1-0.1,0.4,0,0.5,0
	C72.2,360.8,71.8,361.1,71.8,360z"/>
<path class="st4" d="M114.8,358.5c0,0.1-0.1,0.2-0.4,0.3c-0.4,0-0.8-0.7-1.1-0.7c-1-0.3-1.7-0.4-2.6-0.2c0.4,0.2,0.8,0.1,0.8,0.7
	c-2.9-0.2,0.5,0.5,0.3,1.4c-0.5-0.7-1.7-0.3-2.3-1c-0.2-0.2,0-1.5-0.2-2c-0.1,0.1-0.2,0.1-0.3,0.1c0,1.5-0.9,0.9-1,1.7
	c0,0,0.2,2.4,0.3,2.5c0.8,1.4,0.6,0.1,1.6,0.5c1.3,0.5,1.2,1.2,1.2,2c0,0.3,1,0.5,1.1,0.5c-1.6,1.1-1.3-3-3.5-1.2
	c0,0,0.1,1.1-0.1,1.3c-0.3,0.5-0.6,0.7-1.1,0.9c-1.2,0.7-1.2,0.4-2.7,0.3c0.3-0.5,1.6-0.4,2.2-0.9c0.6-0.5,1-1.1,1-1.9
	c-0.9,0.1-1.2-3.5-1.1-4.5c0.2,0,0.4,0,0.5,0c0.3-1.3-1.9-1.6-2.8-0.9c-0.1,0.1-1.6,2.5-1.6,2.6c0.3-0.7,0.3,1.7,0,1.3
	c0.2,0.4,0.6,0.3,0.9,0.9c0.2,0.4,1,0.4,0.9,0.9c-0.3,1-1.3-0.4-1.3-0.4c-1.1-0.3-2-0.7-3.1-1.1c-0.6-0.2-2.7-1.3-3-1.2
	c-1.4,0.2,2.7,1.9-0.1,3c0-2.2-4.6,1.6-3.7-0.9c-1.2,0.7-2.6,0.7-3.8,1.5c-0.2,0.1-2.8,2.5-2.7,0.1c2,0.1-0.3-1.3-1.5-1.3
	c0.5,0.5,0.9,3,0.4,3.3c0.1-0.1-1.2-0.4-1.5-0.3c-0.3,0.1-1.1,1-1.6,1c0.2,0.2,0.6,0.9,0.6,1.2c-0.8-0.4-1.8,0-2.4-0.9
	c-1.6,0.9,0.8,1,0.8,1.5c0,0.4-1.2,0.2-1.3,0.2c-1.2-0.6-0.6-0.4-1.1-1.3c-0.5-0.8-1.4-1.8-2.2-2.7c0.7,0.1,7.5,2.9,6.7-0.4
	c-0.2-0.8-2.1-1.5-2.8-1.7c-1.1-0.4-2.8-0.1-3.3-0.4c0.6-1.2-1.7-0.8-2.3-1.3c0.9,0,0.4-0.4,0-0.6c-1.1-0.6-0.7,0.2-1.5,0.2
	c0.1-0.2,0.2-0.6,0.2-0.8c-0.3-0.1-0.8-0.1-1.1,0c0,0.4-0.1,0.6,0,1c-0.2-0.5-0.4-0.4-0.7-0.7c0-0.1,0-0.3,0-0.4
	c-0.3,0-2.5,1.2-1.7,0.4c-1.6-0.2-1.5,0.7-0.6,1.2c-0.5-0.2-1.1,0-1.6-0.2c0,0.5,0.1,0.6-0.2,0.8c0-0.6-0.8-1.1-1.4-1
	c0.2,0.8-0.5,2-0.7,0.9c-1,1-0.1,0.3-0.4,1.3c-0.8-0.3-0.6-0.1-0.9-0.9c-0.3,0.1-0.5,0.5-1,0.7c0.1,0.3,0.1,0.1,0.1,0.4
	c-0.7,0-1.2,0.3-1.6,0.9c0.8-0.3,2-1,2.9-0.6c-1.2,0.3-2.9,2.2-3.1,3.7c-0.4,0-1,0.4-1.3,0.7c0.2,0,0.4,0,0.6,0
	c-0.1,0.8-1.9,1.5-2.4,1.4c0,0.3-0.1,0.2,0.1,0.6c-2.1,0.4-2.4,1.7-2.8,3.2c1.8-0.1-0.6,1.1,1,1.2c0,0.4-0.3,0.5-0.2,0.9
	c1.7,0,2.4,0.2,3.5-1.3c0.8,0.1,1.3,2.9,2,3.6c0.2,0.2-0.4,0.6,0.1,0.8c1.1,0.4,0.6-0.4,1.1-0.6c0.9-0.3,1.3-0.6,2-0.8
	c0.1-0.1,0.1-0.3,0-0.4c-0.4,0-0.5,0-0.8-0.2c0.2-0.4,1.3-1.7,1.3-1.9c0.3-0.7,1.2-1.2-0.2-1.2c0-1-0.9-2,0.2-3.3
	c0.5-0.6,1.5-0.7,2-1.3c0.3-0.4,0.3-1.7,1.1-2.2c0.6-0.4,2,0.3,2.1,1c0.2,1.5-4.7,2.4-2.4,5c1.6,1.8,4.4-0.4,6.2,0.7
	c-1,1.1-2.5,0.6-3.8,0.8c-0.5,0.1-2.2,0.6-2.2,0.7c0.2,0.1,0.3,0.2,0.5,0.2c-0.4,0-0.6,0.1-1,0.2c0.4,1.1,1.2-0.2,1.5,0
	c0.5,0.3,0.6,0.6,1.1,0.9c-1.3,1.7-1.3-0.3-2,0c-0.9,0.3-0.9,2.4-0.9,2.9c-0.7,0-1.6-0.3-1.3,0.4c2.8,0.6,5.4,1.5,8,2.6
	c8.4-9.5,20.6-15.5,34.2-15.5c5.2,0,10.3,0.9,14.9,2.5C121.6,365,118.4,361.6,114.8,358.5z M71.8,360c0.1-0.1,0.4,0,0.5,0
	C72.2,360.8,71.8,361.1,71.8,360z"/>
<path class="st1" d="M48.1,375c-0.4,0.1-0.8,0.6-0.8,0.9C47.6,375.8,48.7,374.9,48.1,375z"/>
<path class="st2" d="M48.1,375c-0.4,0.1-0.8,0.6-0.8,0.9C47.6,375.8,48.7,374.9,48.1,375z"/>
<path class="st1" d="M50.8,377.4c-0.1-0.4,1.7-2.2-0.9-1.4c0.2-0.4,0.3-0.7,0.7-1c-0.9-0.9-1.3,0.5-1.6,0.8c-0.1,0-1.8,0.7-0.4,0.9
	c-0.1,0.4-0.6,1-0.6,1.3c0.5,0.1,1,0.4,1.2-0.1c0,0.4,0,0.6,0.1,0.8c0.7-0.1,1.5-0.2,2.2-0.3C51,377.9,50.9,377.9,50.8,377.4z"/>
<path class="st2" d="M50.8,377.4c-0.1-0.4,1.7-2.2-0.9-1.4c0.2-0.4,0.3-0.7,0.7-1c-0.9-0.9-1.3,0.5-1.6,0.8c-0.1,0-1.8,0.7-0.4,0.9
	c-0.1,0.4-0.6,1-0.6,1.3c0.5,0.1,1,0.4,1.2-0.1c0,0.4,0,0.6,0.1,0.8c0.7-0.1,1.5-0.2,2.2-0.3C51,377.9,50.9,377.9,50.8,377.4z"/>
<path class="st1" d="M46.5,379.2c0.5-0.1,1-0.2,1.5-0.3C47.1,378.4,46.1,378.3,46.5,379.2z"/>
<path class="st2" d="M46.5,379.2c0.5-0.1,1-0.2,1.5-0.3C47.1,378.4,46.1,378.3,46.5,379.2z"/>
<path class="st0" d="M86.8,434.3c-1.2,0-2.4-0.1-3.5-0.3c0.1,1.5-0.1,2.8-1.4,3.9c-0.6,0.6-2.8,1.2-3.1,2.4c-0.3,1.4,1.2,2,0.3,3.4
	c2.2-0.1,4.4-0.5,6.4-1c0-0.3,0-0.6,0-0.9c0.2-1,0.5-1.1,0.6-1.9c0.1-0.4-0.5-2,0-2.5c0.7-0.7,1.7-0.4,2.4-1c0.3-0.3,1-1.5,1-2.1
	c1.8,0.7,0.7,3.8,0.7,5.3c0,0.3-0.9,0.5-1,0.7c0,0-0.2,0.6-0.3,1.2c5.5-2.2,10.3-5.8,13.8-10.5c0.2-1.3,0.3-2.5,0.4-3.8
	C99,431.5,93.2,434.3,86.8,434.3z"/>
<path class="st0" d="M40.7,410.4c-0.1-0.2,0.3-0.3,0.2-0.6c-0.2-0.4-1.3,0.1-1.4-0.2c-0.3-1.1,1.7-3,2.2-3.7c0.5-0.7,1-1.6,1.5-2.2
	c0.4-0.5,1.5-1,1.7-1.4c0.5-0.6,0.3-1.8,0.8-2.8c0.3-0.6,1.7,0.6,1.2-1.3c0.4,0,0.8,0,1.2,0c0-2.1,0.9-1,2.4-0.9c1.3,0,2-0.6,3-1
	c1.5-0.6,2.7-0.1,3.8-0.2c1.1,0,3.1-1.2,3.9,0.1c-0.5,0.1-0.5,0.2-0.9,0.5c1.5,0.9-0.3,1.1,0.6,2.2c0.4,0.6,2.5,0.9,3.2,1.2
	c0,0.2,0.1,0.4,0.2,0.6c0.4,0,0.7,0,1.1,0c0.7-2.6,1.5-5,2.6-7.4c-0.2-0.5-0.4-1-0.5-1.3c-0.5-0.9-1.5-1.3-2.4-1.9
	c-1.2-0.9-2.8-3.1-3-0.6c0.6,0,1.8,0.9,1.7,1.6c1.2,0.2,2.5,1.3,3,2.2c-0.3,0-1.1-0.2-1.4-0.3c0,0.1,0,0.3,0,0.4c0.2,0,0.4,0,0.7,0
	c-0.5,1.3-2.5,3.6-3.8,1.4c4.7,0,1.4-2-0.5-3.5c-0.6-0.5-1.4-2-2.2-2.1c-0.6-0.1-1.6,1.2-1.8,1.2c-0.6,0.1-1.5-0.6-2-0.3
	c-0.6,0.4,0,0.9-0.4,1.2c-0.3,0.2-1.9,0.7-2.2,1.1c-0.3,0.3-0.4,1.1-0.5,1.3c0,0,0.5,0.4,0.3,0.6c-0.3,0.4-0.5,0-0.8,0.3
	c-0.9,0.8-2.3,1.3-3.4,1.7c0.2,0,0.2,0.1,0.1,0.2c-0.7-0.8-1-0.4-1.7-0.8c-1.1-0.7-0.7,0.1-1-1.2c-0.4-1.4,0.3-3.1-0.2-4.5
	c2.2-0.9,7.6,1.8,5.4-2.6c-0.4-0.8-0.9-1-1.2-1.6c-0.3-0.4-1.3-0.2-0.5-0.8c0.7-0.5,3,0.9,1.8-1.1c0.5,0,0.9,0.6,1.7,0.4
	c0.2-0.1,0.8-1.5,0.9-1.5c0.7-0.6,2.7-0.4,1.7-1.7c0.8,0,2-0.4,2.7-0.8c1.4-0.8,0.9,0.2,0.9-1.6c0-0.2,0-0.4-0.1-0.7
	c-0.8,0-1.6-0.1-2.4-0.1c-1.9,0-3.7,0.1-5.5,0.4c0.1,0.1,0.2,0.2,0.3,0.4c0.5,0.5,0.9,1.3,1.3,1.6c0.2,0.2,0.2,0.6,0.4,0.9
	c0,0,0.5-0.9,0.6-0.3c0.3,0.9-0.1,1.9-1.1,2.3c-0.6,0.3-1.5-0.1-2.2,0c-0.5,0.1-1.1,0.6-1.8,0.6c-0.5,0,1.7-1.2,1.8-1.4
	c-0.4-0.4-1.5,0-1.7-0.2c-0.4-0.4,0.7-0.6,0.7-1c-0.3,0-0.5,0-0.8-0.1c0.7-0.9,2,0.1,1.4-1.3c-0.4-0.9-1-0.7-1.2-1.2
	c-0.4,0.1-0.8,0.1-1.3,0.2c0.6,0.3,1.1,0.8,0.3,0.9c0,0.8-0.1,1.4-0.1,2c-1.5-0.3-4,1.4-2.2-1.2c-1.4,0.1-0.2-1.1,0.6-1.2
	c0-0.1,0-0.1-0.1-0.2c-1.7,0.4-3.4,0.9-5.1,1.5c-5.3,9-8.4,19.5-8.4,30.7h7.8C40.7,411,40.7,410.7,40.7,410.4z"/>
<path class="st5" d="M40.7,410.4c-0.1-0.2,0.3-0.3,0.2-0.6c-0.2-0.4-1.3,0.1-1.4-0.2c-0.3-1.1,1.7-3,2.2-3.7c0.5-0.7,1-1.6,1.5-2.2
	c0.4-0.5,1.5-1,1.7-1.4c0.5-0.6,0.3-1.8,0.8-2.8c0.3-0.6,1.7,0.6,1.2-1.3c0.4,0,0.8,0,1.2,0c0-2.1,0.9-1,2.4-0.9c1.3,0,2-0.6,3-1
	c1.5-0.6,2.7-0.1,3.8-0.2c1.1,0,3.1-1.2,3.9,0.1c-0.5,0.1-0.5,0.2-0.9,0.5c1.5,0.9-0.3,1.1,0.6,2.2c0.4,0.6,2.5,0.9,3.2,1.2
	c0,0.2,0.1,0.4,0.2,0.6c0.4,0,0.7,0,1.1,0c0.7-2.6,1.5-5,2.6-7.4c-0.2-0.5-0.4-1-0.5-1.3c-0.5-0.9-1.5-1.3-2.4-1.9
	c-1.2-0.9-2.8-3.1-3-0.6c0.6,0,1.8,0.9,1.7,1.6c1.2,0.2,2.5,1.3,3,2.2c-0.3,0-1.1-0.2-1.4-0.3c0,0.1,0,0.3,0,0.4c0.2,0,0.4,0,0.7,0
	c-0.5,1.3-2.5,3.6-3.8,1.4c4.7,0,1.4-2-0.5-3.5c-0.6-0.5-1.4-2-2.2-2.1c-0.6-0.1-1.6,1.2-1.8,1.2c-0.6,0.1-1.5-0.6-2-0.3
	c-0.6,0.4,0,0.9-0.4,1.2c-0.3,0.2-1.9,0.7-2.2,1.1c-0.3,0.3-0.4,1.1-0.5,1.3c0,0,0.5,0.4,0.3,0.6c-0.3,0.4-0.5,0-0.8,0.3
	c-0.9,0.8-2.3,1.3-3.4,1.7c0.2,0,0.2,0.1,0.1,0.2c-0.7-0.8-1-0.4-1.7-0.8c-1.1-0.7-0.7,0.1-1-1.2c-0.4-1.4,0.3-3.1-0.2-4.5
	c2.2-0.9,7.6,1.8,5.4-2.6c-0.4-0.8-0.9-1-1.2-1.6c-0.3-0.4-1.3-0.2-0.5-0.8c0.7-0.5,3,0.9,1.8-1.1c0.5,0,0.9,0.6,1.7,0.4
	c0.2-0.1,0.8-1.5,0.9-1.5c0.7-0.6,2.7-0.4,1.7-1.7c0.8,0,2-0.4,2.7-0.8c1.4-0.8,0.9,0.2,0.9-1.6c0-0.2,0-0.4-0.1-0.7
	c-0.8,0-1.6-0.1-2.4-0.1c-1.9,0-3.7,0.1-5.5,0.4c0.1,0.1,0.2,0.2,0.3,0.4c0.5,0.5,0.9,1.3,1.3,1.6c0.2,0.2,0.2,0.6,0.4,0.9
	c0,0,0.5-0.9,0.6-0.3c0.3,0.9-0.1,1.9-1.1,2.3c-0.6,0.3-1.5-0.1-2.2,0c-0.5,0.1-1.1,0.6-1.8,0.6c-0.5,0,1.7-1.2,1.8-1.4
	c-0.4-0.4-1.5,0-1.7-0.2c-0.4-0.4,0.7-0.6,0.7-1c-0.3,0-0.5,0-0.8-0.1c0.7-0.9,2,0.1,1.4-1.3c-0.4-0.9-1-0.7-1.2-1.2
	c-0.4,0.1-0.8,0.1-1.3,0.2c0.6,0.3,1.1,0.8,0.3,0.9c0,0.8-0.1,1.4-0.1,2c-1.5-0.3-4,1.4-2.2-1.2c-1.4,0.1-0.2-1.1,0.6-1.2
	c0-0.1,0-0.1-0.1-0.2c-1.7,0.4-3.4,0.9-5.1,1.5c-5.3,9-8.4,19.5-8.4,30.7h7.8C40.7,411,40.7,410.7,40.7,410.4z"/>
<path class="st0" d="M67.4,379.2c-0.1,0-0.2-0.1-0.3-0.1c0.1,0.1,0.3,0.2,0.4,0.3C67.4,379.3,67.4,379.3,67.4,379.2z"/>
<path class="st2" d="M67.4,379.2c-0.1,0-0.2-0.1-0.3-0.1c0.1,0.1,0.3,0.2,0.4,0.3C67.4,379.3,67.4,379.3,67.4,379.2z"/>
<path class="st2" d="M67.4,379.2c-0.1,0-0.2-0.1-0.3-0.1c0.1,0.1,0.3,0.2,0.4,0.3C67.4,379.3,67.4,379.3,67.4,379.2z"/>
<path class="st0" d="M63.1,434.3c0.4-2.5-1.2-7.6-3.8-8.4c0.6-0.6,1-1.8,0.9-2.8c0-2.1,0.1-1.1-1.9-1.6c-1.2-0.3-1-0.8-1.7-1.2
	c-0.5-0.2-2.4-0.3-3.2,0c-1.1,0.4-1,0.9-2.3,0.9c-0.6,0-1.3-0.4-2.2-0.3c-1,0.1-1.2,0.6-2.3,0.4c-0.1,0-0.1-0.1-0.2-0.1
	c2.7,8.3,8.7,15.2,16.4,19c-0.1-0.3-0.2-0.5-0.4-0.8C61.2,436.9,62.7,436.8,63.1,434.3z"/>
<path class="st2" d="M63.1,434.3c0.4-2.5-1.2-7.6-3.8-8.4c0.6-0.6,1-1.8,0.9-2.8c0-2.1,0.1-1.1-1.9-1.6c-1.2-0.3-1-0.8-1.7-1.2
	c-0.5-0.2-2.4-0.3-3.2,0c-1.1,0.4-1,0.9-2.3,0.9c-0.6,0-1.3-0.4-2.2-0.3c-1,0.1-1.2,0.6-2.3,0.4c-0.1,0-0.1-0.1-0.2-0.1
	c2.7,8.3,8.7,15.2,16.4,19c-0.1-0.3-0.2-0.5-0.4-0.8C61.2,436.9,62.7,436.8,63.1,434.3z"/>
<path class="st0" d="M60.5,379.4c0.3,0.2,0.8,0.4,1.3,0.4c0.1-1.2,2.1-0.1,2.5-0.1c0.9-0.1,1.5-0.7,2.1-0.7
	c-1.3-0.3-2.7-0.5-4.1-0.6C62,379.4,60.6,378.2,60.5,379.4z"/>
<path class="st2" d="M60.5,379.4c0.3,0.2,0.8,0.4,1.3,0.4c0.1-1.2,2.1-0.1,2.5-0.1c0.9-0.1,1.5-0.7,2.1-0.7
	c-1.3-0.3-2.7-0.5-4.1-0.6C62,379.4,60.6,378.2,60.5,379.4z"/>
<path class="st1" d="M90.3,439.6c0-1.5,1.1-4.6-0.7-5.3c0,0.5-0.7,1.8-1,2.1c-0.7,0.6-1.7,0.4-2.4,1c-0.5,0.5,0.1,2.1,0,2.5
	c-0.1,0.8-0.5,0.9-0.6,1.9c0,0.3-0.1,0.6,0,0.9c1.2-0.3,2.3-0.7,3.4-1.1c0.1-0.5,0.3-1.1,0.3-1.2C89.4,440.1,90.3,439.9,90.3,439.6z
	"/>
<path class="st6" d="M90.3,439.6c0-1.5,1.1-4.6-0.7-5.3c0,0.5-0.7,1.8-1,2.1c-0.7,0.6-1.7,0.4-2.4,1c-0.5,0.5,0.1,2.1,0,2.5
	c-0.1,0.8-0.5,0.9-0.6,1.9c0,0.3-0.1,0.6,0,0.9c1.2-0.3,2.3-0.7,3.4-1.1c0.1-0.5,0.3-1.1,0.3-1.2C89.4,440.1,90.3,439.9,90.3,439.6z
	"/>
<path class="st1" d="M50.4,379.8c0.7,1.4-0.7,0.5-1.4,1.3c0.3,0.1,0.5,0,0.8,0.1c0,0.4-1.1,0.6-0.7,1c0.2,0.3,1.3-0.1,1.7,0.2
	c-0.1,0.1-2.3,1.4-1.8,1.4c0.8,0,1.4-0.6,1.8-0.6c0.7-0.1,1.7,0.2,2.2,0c1-0.5,1.3-1.4,1.1-2.3c-0.2-0.6-0.6,0.3-0.6,0.3
	c-0.3-0.3-0.2-0.7-0.4-0.9c-0.4-0.3-0.8-1-1.3-1.6c-0.1-0.2-0.2-0.3-0.3-0.4c-0.7,0.1-1.5,0.2-2.2,0.3
	C49.4,379.1,49.9,378.9,50.4,379.8z"/>
<path class="st2" d="M50.4,379.8c0.7,1.4-0.7,0.5-1.4,1.3c0.3,0.1,0.5,0,0.8,0.1c0,0.4-1.1,0.6-0.7,1c0.2,0.3,1.3-0.1,1.7,0.2
	c-0.1,0.1-2.3,1.4-1.8,1.4c0.8,0,1.4-0.6,1.8-0.6c0.7-0.1,1.7,0.2,2.2,0c1-0.5,1.3-1.4,1.1-2.3c-0.2-0.6-0.6,0.3-0.6,0.3
	c-0.3-0.3-0.2-0.7-0.4-0.9c-0.4-0.3-0.8-1-1.3-1.6c-0.1-0.2-0.2-0.3-0.3-0.4c-0.7,0.1-1.5,0.2-2.2,0.3
	C49.4,379.1,49.9,378.9,50.4,379.8z"/>
<path class="st1" d="M46.5,379.4c-0.8,0.2-1.9,1.3-0.6,1.2c-1.8,2.6,0.7,0.9,2.2,1.2c0.1-0.6,0.1-1.3,0.1-2c0.8-0.1,0.3-0.6-0.3-0.9
	c-0.5,0.1-1,0.2-1.5,0.3C46.5,379.2,46.5,379.3,46.5,379.4z"/>
<path class="st2" d="M46.5,379.4c-0.8,0.2-1.9,1.3-0.6,1.2c-1.8,2.6,0.7,0.9,2.2,1.2c0.1-0.6,0.1-1.3,0.1-2c0.8-0.1,0.3-0.6-0.3-0.9
	c-0.5,0.1-1,0.2-1.5,0.3C46.5,379.2,46.5,379.3,46.5,379.4z"/>
<g>
	<path class="st7" d="M148.6,414.9c0.1,1.1,0.2,2.2,0.2,3.4c0,3.6-0.4,7-0.9,10.4c0.4-0.4,0.8-0.7,1.2-1c0.5-0.4,0.9-1.4,1.5-1.5
		c0,0,0.1,0.1,0.3,0.3c0.1-0.6,0.3-1.1,0.4-1.7c-0.2,0.1-0.5,0.3-0.7,0.3c0.1-0.4,0.5-0.8,0.9-1.3c0.6-3.4,1-6.9,1-10.6h0
		c0-0.3,0-0.6,0-0.9c-0.6,0.6-1.3,1.2-1.7,1.5C149.8,414.4,149.5,414.6,148.6,414.9z"/>
	<path class="st8" d="M147,433.4c-0.2,0.9-0.4,1.7-0.7,2.6c0.5,0,1,0.1,1.5,0.2c0.3-0.8,0.6-1.6,0.9-2.4c-0.1,0-0.3-0.1-0.5-0.1
		C147.7,433.5,147.3,433.5,147,433.4z"/>
	<path class="st8" d="M146.1,436.9c-0.9,3-2,5.9-3.3,8.8c1.7-2.7,3.3-5.5,4.5-8.5C146.9,437.1,146.5,437,146.1,436.9z"/>
	<path class="st7" d="M150.5,426.2c-0.6,0-1,1.1-1.5,1.5c-0.3,0.3-0.7,0.7-1.2,1c-0.3,1.6-0.5,3.2-0.9,4.7c0.3,0.1,0.7,0.1,1.2,0.2
		c0.2,0,0.4,0.1,0.5,0.1c0.8-2.3,1.6-4.7,2.1-7.2C150.6,426.4,150.5,426.2,150.5,426.2z"/>
	<path class="st9" d="M146.1,436.9c0.4,0.1,0.8,0.2,1.3,0.3c0.2-0.4,0.3-0.7,0.4-1.1c-0.5-0.1-1-0.1-1.5-0.2
		C146.2,436.3,146.2,436.6,146.1,436.9z"/>
	<path class="st7" d="M151.2,424.9c0.1-0.3,0.1-0.7,0.2-1c-0.4,0.5-0.8,0.9-0.9,1.3C150.7,425.1,150.9,425,151.2,424.9z"/>
	<path class="st7" d="M150.5,413.9c0.5-0.4,1.1-0.9,1.7-1.5c-0.3-8.7-4-16.6-9.8-22.3c3.6,7.6,5.8,16,6.2,24.9
		C149.5,414.6,149.8,414.4,150.5,413.9z"/>
	<path class="st0" d="M145.8,436.9c-1.5-0.1-2.7-0.3-3.5-1c1.4,0,2.7,0,4.1,0.1c0.2-0.8,0.5-1.7,0.7-2.6c-0.6-0.1-1-0.3-1.5-1
		c-0.6-0.7-1.2-2-0.2-2.7c0.6,0.5,1.7-0.2,2.6-1c0.5-3.4,0.9-6.9,0.9-10.4c0-1.1-0.1-2.3-0.2-3.4c0,0-0.1,0-0.1,0
		c-0.6,0.2-1.8,0.2-2.4,0.7c0,0-0.2,3.3-1.5,2.2c-0.5-0.5,0.8-1.5,0.6-2.4c-3.1,0-2.8,2.1-1.4,3.9c0.9,1.2,1.6,2.4,0.5,3.9
		c-0.6,0.8-1.7,1.1-2.5,2.1c-0.4-0.6,0-1-0.3-1.4c-0.1-0.1-0.7-0.3-0.8-0.5c-0.7-0.9-0.6-0.8-1.4-1.3c-0.9-0.5-0.1-1.1-1.1-0.3
		c-0.6,0.5-0.2,2-0.2,2.3c0.2,1.5,1.3,1.5,2.1,2.5c0.6,0.7,0.6,2.6,1.2,3.6c-1.7,0.8-2.5-2.4-2.9-3.3c-0.3-0.7-1.2-1.3-1.5-1.9
		c-0.4-1,0.5-1.6,0.5-2.2c0-1.1-0.7-3.7-1.7-4c-0.1,0-0.8,1-1.5,0.5c-0.9-0.7,0.5-1.8-0.7-1.8c0-0.5-1-2.7-1.4-2.9
		c0,0-2.2,0.4-2.7,0.7c-1.3,0.7-2.9,2.8-4.3,4.1c-0.7,0.7-0.6-0.3-1,0.7c-0.1,0.3,0,0.9,0,1.3c-0.1,0.7-0.1,1.4-0.4,2
		c-0.4,0.9-1.2,1.7-2,1.2c-0.6-0.4-1.1-2.1-1.4-3.1c-1.1,5.5-3.2,10.6-6.1,15.1c-2.4,17.5-15.1,31.7-31.8,36.4c3,0.5,6,0.7,9.1,0.7
		c21.5,0,40.4-11.3,51.2-28.3c1.3-2.8,2.4-5.7,3.3-8.8C146,436.9,145.9,436.9,145.8,436.9z M125.1,426.7c-1.1,1-1.4-1.9-1-2.5
		C124.3,424.5,125.8,426.2,125.1,426.7z M135.9,429.7c-0.3,0-0.5-0.2-0.5-0.5c0-0.3,0.2,0,0.2,0.1
		C135.9,429.4,136,429.5,135.9,429.7z M136.3,430.3C136.2,430.3,136.2,430.3,136.3,430.3C136.2,430.3,136.3,430.3,136.3,430.3
		C136.3,430.3,136.3,430.3,136.3,430.3c0,0,0-0.1,0.1-0.2c0.5,0.2,0.6,0.5,0.6,1C136.8,430.7,136.5,430.6,136.3,430.3
		C136.3,430.3,136.3,430.3,136.3,430.3z M137.4,431.9c0,0.1,1.2,1.1,1.3,1.8C138.3,433.6,137.5,432.4,137.4,431.9z M140,434.8
		C139.9,435.3,139.8,435.1,140,434.8L140,434.8z M141.4,435.2c-0.7,0-1.9-1.8-2.5-2.5c-0.8-1-1.4-2.3-2.1-3.2
		c-0.5-0.6-1.8-1.5-2-2.3c0.4-0.1,0.6,0.4,1.1,0.4c1.5,0.2,5.6,3.9,5.6,5c0.8-0.5,1.7-0.2,1.8,0.8
		C142.1,433.8,143,435.3,141.4,435.2z"/>
	<path class="st10" d="M145.8,436.9c-1.5-0.1-2.7-0.3-3.5-1c1.4,0,2.7,0,4.1,0.1c0.2-0.8,0.5-1.7,0.7-2.6c-0.6-0.1-1-0.3-1.5-1
		c-0.6-0.7-1.2-2-0.2-2.7c0.6,0.5,1.7-0.2,2.6-1c0.5-3.4,0.9-6.9,0.9-10.4c0-1.1-0.1-2.3-0.2-3.4c0,0-0.1,0-0.1,0
		c-0.6,0.2-1.8,0.2-2.4,0.7c0,0-0.2,3.3-1.5,2.2c-0.5-0.5,0.8-1.5,0.6-2.4c-3.1,0-2.8,2.1-1.4,3.9c0.9,1.2,1.6,2.4,0.5,3.9
		c-0.6,0.8-1.7,1.1-2.5,2.1c-0.4-0.6,0-1-0.3-1.4c-0.1-0.1-0.7-0.3-0.8-0.5c-0.7-0.9-0.6-0.8-1.4-1.3c-0.9-0.5-0.1-1.1-1.1-0.3
		c-0.6,0.5-0.2,2-0.2,2.3c0.2,1.5,1.3,1.5,2.1,2.5c0.6,0.7,0.6,2.6,1.2,3.6c-1.7,0.8-2.5-2.4-2.9-3.3c-0.3-0.7-1.2-1.3-1.5-1.9
		c-0.4-1,0.5-1.6,0.5-2.2c0-1.1-0.7-3.7-1.7-4c-0.1,0-0.8,1-1.5,0.5c-0.9-0.7,0.5-1.8-0.7-1.8c0-0.5-1-2.7-1.4-2.9
		c0,0-2.2,0.4-2.7,0.7c-1.3,0.7-2.9,2.8-4.3,4.1c-0.7,0.7-0.6-0.3-1,0.7c-0.1,0.3,0,0.9,0,1.3c-0.1,0.7-0.1,1.4-0.4,2
		c-0.4,0.9-1.2,1.7-2,1.2c-0.6-0.4-1.1-2.1-1.4-3.1c-1.1,5.5-3.2,10.6-6.1,15.1c-2.4,17.5-15.1,31.7-31.8,36.4c3,0.5,6,0.7,9.1,0.7
		c21.5,0,40.4-11.3,51.2-28.3c1.3-2.8,2.4-5.7,3.3-8.8C146,436.9,145.9,436.9,145.8,436.9z M125.1,426.7c-1.1,1-1.4-1.9-1-2.5
		C124.3,424.5,125.8,426.2,125.1,426.7z M135.9,429.7c-0.3,0-0.5-0.2-0.5-0.5c0-0.3,0.2,0,0.2,0.1
		C135.9,429.4,136,429.5,135.9,429.7z M136.3,430.3C136.2,430.3,136.2,430.3,136.3,430.3C136.2,430.3,136.3,430.3,136.3,430.3
		C136.3,430.3,136.3,430.3,136.3,430.3c0,0,0-0.1,0.1-0.2c0.5,0.2,0.6,0.5,0.6,1C136.8,430.7,136.5,430.6,136.3,430.3
		C136.3,430.3,136.3,430.3,136.3,430.3z M137.4,431.9c0,0.1,1.2,1.1,1.3,1.8C138.3,433.6,137.5,432.4,137.4,431.9z M140,434.8
		C139.9,435.3,139.8,435.1,140,434.8L140,434.8z M141.4,435.2c-0.7,0-1.9-1.8-2.5-2.5c-0.8-1-1.4-2.3-2.1-3.2
		c-0.5-0.6-1.8-1.5-2-2.3c0.4-0.1,0.6,0.4,1.1,0.4c1.5,0.2,5.6,3.9,5.6,5c0.8-0.5,1.7-0.2,1.8,0.8
		C142.1,433.8,143,435.3,141.4,435.2z"/>
	<path class="st1" d="M143.4,433.4c-0.1-1-1-1.3-1.8-0.8c-0.1-1.1-4.2-4.9-5.6-5c-0.4,0-0.7-0.4-1.1-0.4c0.2,0.9,1.6,1.7,2,2.3
		c0.7,0.9,1.3,2.2,2.1,3.2c0.5,0.7,1.8,2.5,2.5,2.5C143,435.3,142.1,433.8,143.4,433.4z"/>
	<path class="st9" d="M143.4,433.4c-0.1-1-1-1.3-1.8-0.8c-0.1-1.1-4.2-4.9-5.6-5c-0.4,0-0.7-0.4-1.1-0.4c0.2,0.9,1.6,1.7,2,2.3
		c0.7,0.9,1.3,2.2,2.1,3.2c0.5,0.7,1.8,2.5,2.5,2.5C143,435.3,142.1,433.8,143.4,433.4z"/>
	<path class="st1" d="M145.3,429.7c-1,0.7-0.4,1.9,0.2,2.7c0.5,0.7,0.9,0.9,1.5,1c0.4-1.6,0.6-3.1,0.9-4.7
		C147,429.5,145.9,430.2,145.3,429.7z"/>
	<path class="st9" d="M145.3,429.7c-1,0.7-0.4,1.9,0.2,2.7c0.5,0.7,0.9,0.9,1.5,1c0.4-1.6,0.6-3.1,0.9-4.7
		C147,429.5,145.9,430.2,145.3,429.7z"/>
	<path class="st1" d="M136.3,430.3C136.3,430.3,136.3,430.3,136.3,430.3C136.3,430.3,136.3,430.3,136.3,430.3z"/>
	<path class="st2" d="M136.3,430.3C136.3,430.3,136.3,430.3,136.3,430.3C136.3,430.3,136.3,430.3,136.3,430.3z"/>
	<path class="st1" d="M121.8,424.8c0.8,0.4,1.6-0.3,2-1.2c0.3-0.6,0.3-1.3,0.4-2c0-0.4-0.1-1,0-1.3c0.4-1,0.3,0,1-0.7
		c1.4-1.3,3-3.4,4.3-4.1c0.5-0.3,2.7-0.7,2.7-0.7c0.4,0.3,1.4,2.4,1.4,2.9c1.3,0-0.2,1.1,0.7,1.8c0.6,0.5,1.3-0.6,1.5-0.5
		c1,0.3,1.7,2.9,1.7,4c0,0.6-0.9,1.2-0.5,2.2c0.2,0.6,1.1,1.1,1.5,1.9c0.4,0.9,1.2,4.2,2.9,3.3c-0.6-1-0.6-2.8-1.2-3.6
		c-0.9-1-1.9-1-2.1-2.5c-0.1-0.3-0.4-1.9,0.2-2.3c0.9-0.7,0.2-0.2,1.1,0.3c0.8,0.4,0.7,0.4,1.4,1.3c0.2,0.2,0.7,0.4,0.8,0.5
		c0.3,0.4-0.1,0.8,0.3,1.4c0.7-1.1,1.9-1.3,2.5-2.1c1.1-1.5,0.4-2.7-0.5-3.9c-1.4-1.8-1.7-3.9,1.4-3.9c0.2,0.9-1.2,1.9-0.6,2.4
		c1.3,1.1,1.6-2.2,1.5-2.2c0.6-0.5,1.8-0.5,2.4-0.7c0,0,0.1,0,0.1,0c-0.4-8.9-2.6-17.3-6.2-24.9c-5.8-5.6-13.7-9.1-22.5-9.1
		c-10.4,0-19.7,4.9-25.6,12.6c0.8,0.5,1.5,1,2.2,1.5c3.8-2.9,8.6-4.7,13.7-4.7c12.6,0,22.9,10.3,22.9,22.9h-11.9
		c0,2.9-0.4,5.7-0.9,8.4C120.7,422.7,121.2,424.5,121.8,424.8z"/>
	<path class="st9" d="M121.8,424.8c0.8,0.4,1.6-0.3,2-1.2c0.3-0.6,0.3-1.3,0.4-2c0-0.4-0.1-1,0-1.3c0.4-1,0.3,0,1-0.7
		c1.4-1.3,3-3.4,4.3-4.1c0.5-0.3,2.7-0.7,2.7-0.7c0.4,0.3,1.4,2.4,1.4,2.9c1.3,0-0.2,1.1,0.7,1.8c0.6,0.5,1.3-0.6,1.5-0.5
		c1,0.3,1.7,2.9,1.7,4c0,0.6-0.9,1.2-0.5,2.2c0.2,0.6,1.1,1.1,1.5,1.9c0.4,0.9,1.2,4.2,2.9,3.3c-0.6-1-0.6-2.8-1.2-3.6
		c-0.9-1-1.9-1-2.1-2.5c-0.1-0.3-0.4-1.9,0.2-2.3c0.9-0.7,0.2-0.2,1.1,0.3c0.8,0.4,0.7,0.4,1.4,1.3c0.2,0.2,0.7,0.4,0.8,0.5
		c0.3,0.4-0.1,0.8,0.3,1.4c0.7-1.1,1.9-1.3,2.5-2.1c1.1-1.5,0.4-2.7-0.5-3.9c-1.4-1.8-1.7-3.9,1.4-3.9c0.2,0.9-1.2,1.9-0.6,2.4
		c1.3,1.1,1.6-2.2,1.5-2.2c0.6-0.5,1.8-0.5,2.4-0.7c0,0,0.1,0,0.1,0c-0.4-8.9-2.6-17.3-6.2-24.9c-5.8-5.6-13.7-9.1-22.5-9.1
		c-10.4,0-19.7,4.9-25.6,12.6c0.8,0.5,1.5,1,2.2,1.5c3.8-2.9,8.6-4.7,13.7-4.7c12.6,0,22.9,10.3,22.9,22.9h-11.9
		c0,2.9-0.4,5.7-0.9,8.4C120.7,422.7,121.2,424.5,121.8,424.8z"/>
	<path class="st1" d="M125.1,426.7c0.6-0.6-0.8-2.3-1-2.5C123.7,424.8,124,427.7,125.1,426.7z"/>
	<path class="st9" d="M125.1,426.7c0.6-0.6-0.8-2.3-1-2.5C123.7,424.8,124,427.7,125.1,426.7z"/>
	<path class="st1" d="M135.4,429.2c0,0.3,0.2,0.4,0.5,0.5c0.1-0.2,0-0.3-0.2-0.4C135.7,429.2,135.4,428.8,135.4,429.2z"/>
	<path class="st9" d="M135.4,429.2c0,0.3,0.2,0.4,0.5,0.5c0.1-0.2,0-0.3-0.2-0.4C135.7,429.2,135.4,428.8,135.4,429.2z"/>
	<path class="st1" d="M138.8,433.7c-0.1-0.7-1.3-1.8-1.3-1.8C137.5,432.4,138.3,433.6,138.8,433.7z"/>
	<path class="st9" d="M138.8,433.7c-0.1-0.7-1.3-1.8-1.3-1.8C137.5,432.4,138.3,433.6,138.8,433.7z"/>
	<path class="st1" d="M142.3,435.9c0.9,0.7,2.1,0.9,3.5,1c0.1,0,0.2,0,0.3,0.1c0.1-0.3,0.2-0.6,0.2-1
		C145,435.9,143.7,435.8,142.3,435.9z"/>
	<path class="st9" d="M142.3,435.9c0.9,0.7,2.1,0.9,3.5,1c0.1,0,0.2,0,0.3,0.1c0.1-0.3,0.2-0.6,0.2-1
		C145,435.9,143.7,435.8,142.3,435.9z"/>
	<path class="st1" d="M136.3,430.1c-0.1,0.1-0.1,0.2-0.1,0.2c0.2,0.3,0.5,0.4,0.7,0.8C136.9,430.6,136.8,430.3,136.3,430.1z"/>
	<path class="st9" d="M136.3,430.1c-0.1,0.1-0.1,0.2-0.1,0.2c0.2,0.3,0.5,0.4,0.7,0.8C136.9,430.6,136.8,430.3,136.3,430.1z"/>
	<path class="st1" d="M140,434.8C139.8,435.1,139.9,435.3,140,434.8L140,434.8z"/>
	<path class="st2" d="M140,434.8C139.8,435.1,139.9,435.3,140,434.8L140,434.8z"/>
	<path class="st1" d="M136.2,430.3C136.2,430.3,136.2,430.3,136.2,430.3C136.3,430.3,136.2,430.3,136.2,430.3z"/>
	<path class="st9" d="M136.2,430.3C136.2,430.3,136.2,430.3,136.2,430.3C136.3,430.3,136.2,430.3,136.2,430.3z"/>
	<path class="st0" d="M114.3,436.9c-8.1,12.9-22.4,21.5-38.7,21.5c-14.8,0-27.9-7-36.2-17.9c-0.4,0.7-0.5,1.7-0.6,2.7
		c9,15.9,24.9,27.2,43.7,30.1C99.2,468.6,111.9,454.4,114.3,436.9z"/>
	<path class="st2" d="M114.3,436.9c-8.1,12.9-22.4,21.5-38.7,21.5c-14.8,0-27.9-7-36.2-17.9c-0.4,0.7-0.5,1.7-0.6,2.7
		c9,15.9,24.9,27.2,43.7,30.1C99.2,468.6,111.9,454.4,114.3,436.9z"/>
	<path class="st11" d="M114.3,436.9c-8.1,12.9-22.4,21.5-38.7,21.5c-14.8,0-27.9-7-36.2-17.9c-0.4,0.7-0.5,1.7-0.6,2.7
		c9,15.9,24.9,27.2,43.7,30.1C99.2,468.6,111.9,454.4,114.3,436.9z"/>
	<path class="st9" d="M89,403.9c-0.4,1.4-0.8,2.9-1,4.4c0,0,0,0,0,0c0.4-1.6,0.9-3.1,1.6-4.5c0,0,0,0-0.1,0
		C89.5,403.7,89.3,403.8,89,403.9z"/>
	<path class="st9" d="M89,403.9c-0.4,1.4-0.8,2.9-1,4.4c0,0,0,0,0,0c0.4-1.6,0.9-3.1,1.6-4.5c0,0,0,0-0.1,0
		C89.5,403.7,89.3,403.8,89,403.9z"/>
	<path class="st9" d="M89,403.9c-0.4,1.4-0.8,2.9-1,4.4c0,0,0,0,0,0c0.4-1.6,0.9-3.1,1.6-4.5c0,0,0,0-0.1,0
		C89.5,403.7,89.3,403.8,89,403.9z"/>
	<path class="st12" d="M32.9,428.9c0.3,1.1,0.7,2.1,1,3.2c0.2,0.1,0.3,0.1,0.5,0.2C33.9,431.2,33.4,430.1,32.9,428.9z"/>
	<path class="st13" d="M32.9,428.9c0.3,1.1,0.7,2.1,1,3.2c0.2,0.1,0.3,0.1,0.5,0.2C33.9,431.2,33.4,430.1,32.9,428.9z"/>
	<path class="st13" d="M32.9,428.9c0.3,1.1,0.7,2.1,1,3.2c0.2,0.1,0.3,0.1,0.5,0.2C33.9,431.2,33.4,430.1,32.9,428.9z"/>
	<path class="st9" d="M89,403.9c0.2-0.1,0.5-0.1,0.5-0.1c0,0,0,0,0.1,0c1.6-3.5,4-6.4,7-8.7c-0.7-0.5-1.5-1-2.2-1.5
		C92,396.6,90.2,400.1,89,403.9z"/>
	<path class="st9" d="M89,403.9c0.2-0.1,0.5-0.1,0.5-0.1c0,0,0,0,0.1,0c1.6-3.5,4-6.4,7-8.7c-0.7-0.5-1.5-1-2.2-1.5
		C92,396.6,90.2,400.1,89,403.9z"/>
	<path class="st9" d="M89,403.9c0.2-0.1,0.5-0.1,0.5-0.1c0,0,0,0,0.1,0c1.6-3.5,4-6.4,7-8.7c-0.7-0.5-1.5-1-2.2-1.5
		C92,396.6,90.2,400.1,89,403.9z"/>
	<path class="st12" d="M34.4,432.3c-0.2-0.1-0.3-0.1-0.5-0.2c1.3,3.9,2.9,7.6,4.9,11c0.1-1,0.2-2,0.6-2.7
		C37.5,437.9,35.8,435.2,34.4,432.3z"/>
	<path class="st13" d="M34.4,432.3c-0.2-0.1-0.3-0.1-0.5-0.2c1.3,3.9,2.9,7.6,4.9,11c0.1-1,0.2-2,0.6-2.7
		C37.5,437.9,35.8,435.2,34.4,432.3z"/>
	<path class="st13" d="M34.4,432.3c-0.2-0.1-0.3-0.1-0.5-0.2c1.3,3.9,2.9,7.6,4.9,11c0.1-1,0.2-2,0.6-2.7
		C37.5,437.9,35.8,435.2,34.4,432.3z"/>
	<path class="st9" d="M88,408.4c0,0,0-0.1,0-0.1c0,0,0,0,0,0C88,408.3,88,408.4,88,408.4z"/>
	<path class="st9" d="M88,408.4c0,0,0-0.1,0-0.1c0,0,0,0,0,0C88,408.3,88,408.4,88,408.4z"/>
	<path class="st9" d="M88,408.4c0,0,0-0.1,0-0.1c0,0,0,0,0,0C88,408.3,88,408.4,88,408.4z"/>
</g>
<g>
	<g>
		<path class="st6" d="M78.8,440.2c0.2-1.2,2.4-1.8,3.1-2.4c1.3-1.1,1.5-2.4,1.4-3.9c-11-1.7-19.4-11.2-19.4-22.6h0.1
			c0-3.7,0.6-7.3,1.5-10.7c-0.4,0-0.7,0-1.1,0c-0.1-0.2-0.2-0.4-0.2-0.6c-0.7-0.2-2.8-0.6-3.2-1.2c-0.8-1.1,0.9-1.3-0.6-2.2
			c0.4-0.3,0.3-0.4,0.9-0.5c-0.7-1.3-2.8-0.1-3.9-0.1c-1.1,0-2.4-0.5-3.8,0.2c-1,0.4-1.7,1-3,1c-1.6,0-2.4-1.1-2.4,0.9
			c-0.4,0-0.8,0-1.2,0c0.5,1.9-0.9,0.7-1.2,1.3c-0.5,1-0.3,2.2-0.8,2.8c-0.3,0.4-1.3,0.9-1.7,1.4c-0.5,0.5-1,1.5-1.5,2.2
			c-0.5,0.7-2.5,2.6-2.2,3.7c0.1,0.3,1.2-0.1,1.4,0.2c0.2,0.3-0.2,0.4-0.2,0.6c0.1,0.3,0.1,0.6,0.1,0.9h4.1c0,3.5,0.6,6.8,1.6,9.9
			c0.1,0,0.1,0.1,0.2,0.1c1.1,0.2,1.2-0.3,2.3-0.4c0.9-0.1,1.6,0.3,2.2,0.3c1.3,0,1.2-0.5,2.3-0.9c0.9-0.3,2.7-0.2,3.2,0
			c0.8,0.4,0.6,0.9,1.7,1.2c2,0.4,1.9-0.6,1.9,1.6c0,1-0.4,2.3-0.9,2.8c2.5,0.8,4.2,5.9,3.8,8.4c-0.4,2.5-1.9,2.6-0.6,5.2
			c0.1,0.3,0.2,0.5,0.4,0.8c4.3,2.2,9.2,3.4,14.3,3.4c0.6,0,1.3-0.1,1.9-0.1C80.1,442.3,78.5,441.7,78.8,440.2z"/>
		<path class="st6" d="M50.4,379.8c0.7,1.4-0.7,0.5-1.4,1.3c0.3,0.1,0.5,0,0.8,0.1c0,0.4-1.1,0.6-0.7,1c0.2,0.3,1.3-0.1,1.7,0.2
			c-0.1,0.1-2.3,1.4-1.8,1.4c0.8,0,1.4-0.6,1.8-0.6c0.7-0.1,1.7,0.2,2.2,0c1-0.5,1.3-1.4,1.1-2.3c-0.2-0.6-0.6,0.3-0.6,0.3
			c-0.3-0.3-0.2-0.7-0.4-0.9c-0.4-0.3-0.8-1-1.3-1.6c-0.1-0.2-0.2-0.3-0.3-0.4c-0.7,0.1-1.5,0.2-2.2,0.3
			C49.4,379.1,49.9,378.9,50.4,379.8z"/>
		<path class="st6" d="M67.5,379.4c-0.1-0.1-0.3-0.2-0.4-0.3c-0.2-0.1-0.5-0.1-0.7-0.2c-0.6,0.1-1.2,0.6-2.1,0.7
			c-0.5,0-2.4-1.1-2.5,0.1c-0.5,0-1-0.2-1.3-0.4c0.1-1.2,1.6,0.1,1.8-1.1c-1-0.1-2-0.2-3-0.2c0,0.2,0.1,0.4,0.1,0.7
			c-0.1,1.8,0.4,0.8-0.9,1.6c-0.7,0.4-1.9,0.8-2.7,0.8c1,1.3-1,1.2-1.7,1.7c-0.1,0.1-0.7,1.5-0.9,1.5c-0.7,0.2-1.2-0.4-1.7-0.4
			c1.1,2-1.1,0.6-1.8,1.1c-0.8,0.6,0.2,0.4,0.5,0.8c0.4,0.5,0.8,0.8,1.2,1.6c2.2,4.5-3.2,1.7-5.4,2.6c0.4,1.4-0.2,3.1,0.2,4.5
			c0.3,1.2-0.1,0.5,1,1.2c0.7,0.4,1,0,1.7,0.8c0.1-0.2,0.1-0.2-0.1-0.2c1.1-0.4,2.5-0.9,3.4-1.7c0.4-0.3,0.5,0.1,0.8-0.3
			c0.2-0.2-0.3-0.6-0.3-0.6c0.1-0.2,0.2-1,0.5-1.3c0.4-0.4,2-0.9,2.2-1.1c0.3-0.3-0.2-0.9,0.4-1.2c0.5-0.3,1.4,0.4,2,0.3
			c0.2,0,1.2-1.3,1.8-1.2c0.8,0.1,1.5,1.6,2.2,2.1c1.3,1,3.3,2.3,2.9,3c-0.2,0.3-0.9,0.5-2.4,0.5c1.3,2.2,3.3-0.1,3.8-1.4
			c-0.2,0-0.5,0-0.7,0c0-0.1,0-0.3,0-0.4c0.3,0.1,1.2,0.3,1.4,0.3c-0.5-0.9-1.8-2-3-2.2c0.1-0.7-1.1-1.7-1.7-1.6
			c0.2-2.5,1.8-0.3,3,0.6c0.8,0.6,1.9,1,2.4,1.9c0.2,0.3,0.3,0.8,0.5,1.3c1.9-4.2,4.4-8,7.4-11.4c-2.5-1.1-5.2-2-8-2.6
			C67.4,379.3,67.4,379.3,67.5,379.4z"/>
		<path class="st6" d="M46.5,379.4c-0.8,0.2-1.9,1.3-0.6,1.2c-1.8,2.6,0.7,0.9,2.2,1.2c0.1-0.6,0.1-1.3,0.1-2
			c0.8-0.1,0.3-0.6-0.3-0.9c-0.5,0.1-1,0.2-1.5,0.3C46.5,379.2,46.5,379.3,46.5,379.4z"/>
		<g>
			<path class="st6" d="M58.9,391.6C59,391.6,59,391.6,58.9,391.6c0.1,0.1,0,0.1,0,0.1c0,0,0,0,0.1,0c0,0,0,0.1,0,0.1
				c0,0.1,0.1,0,0.2,0c0,0,0,0,0,0l0-0.3c0,0,0,0,0-0.1c0,0,0,0,0-0.1c0,0,0,0,0-0.1c0-0.1,0-0.3,0-0.4c0-0.1,0-0.1-0.1-0.1
				c-0.1,0,0,0.1,0,0.1c0,0,0,0.1,0,0.1c0,0-0.1,0-0.1,0.1c-0.1,0-0.1,0.1-0.2,0.2C58.9,391.4,58.9,391.5,58.9,391.6
				C58.9,391.6,58.9,391.6,58.9,391.6z"/>
			<path class="st6" d="M59.5,392.8c0-0.1-0.1-0.1-0.1-0.2c0,0,0,0,0,0c0.1-0.1-0.1-0.3,0-0.4c-0.1-0.1-0.1-0.2-0.3-0.2
				c-0.1,0.1-0.2,0.3-0.3,0.3c0,0-0.1,0-0.1,0c0,0,0,0,0-0.1c0,0,0,0,0-0.1c0,0,0,0,0,0c0,0,0,0.1,0,0.2c0,0,0,0,0,0
				c0,0,0,0.1,0,0.1c0,0,0,0,0.1,0c0,0,0,0.1,0,0.1c0,0.1,0,0.1,0,0.2c0,0,0,0,0,0.1c0,0,0,0,0.1,0.1c0,0,0,0.1,0,0.1
				c-0.1,0.1,0,0.3,0,0.4c0.1,0,0.1,0.1,0.2,0.1c0,0,0.1,0,0.1,0c0,0,0,0,0,0c0,0,0-0.1,0-0.1c0,0,0-0.1,0-0.1c0,0,0,0,0,0
				c0.1,0,0.1,0.1,0.2,0.1c0,0,0-0.1,0-0.2c0-0.1,0-0.2,0-0.3C59.5,392.9,59.5,392.8,59.5,392.8z"/>
		</g>
	</g>
</g>
</svg>
